0,0,Header,0,1,480
1,0,Start_track
1,0,Tempo,500000
1,0,note_on_c,1,69,100
1,250,note_on_c,1,69,0
1,250,note_on_c,1,67,100
1,500,note_on_c,1,67,0
1,500,note_on_c,1,68,100
1,750,note_on_c,1,68,0
1,750,note_on_c,1,70,100
1,1000,note_on_c,1,70,0
1,1000,note_on_c,1,62,100
1,1250,note_on_c,1,62,0
1,1250,note_on_c,1,64,100
1,1500,note_on_c,1,64,0
1,1500,note_on_c,1,63,100
1,1750,note_on_c,1,63,0
1,1750,note_on_c,1,71,100
1,2000,note_on_c,1,71,0
1,2000,note_on_c,1,61,100
1,2250,note_on_c,1,61,0
1,2250,note_on_c,1,65,100
1,2500,note_on_c,1,65,0
1,2500,note_on_c,1,66,100
1,2750,note_on_c,1,66,0
1,2750,note_on_c,1,60,100
1,3000,note_on_c,1,60,0
1,3000,note_on_c,1,60,100
1,3250,note_on_c,1,60,0
1,3250,note_on_c,1,66,100
1,3500,note_on_c,1,66,0
1,3500,note_on_c,1,65,100
1,3750,note_on_c,1,65,0
1,3750,note_on_c,1,61,100
1,4000,note_on_c,1,61,0
1,4000,note_on_c,1,71,100
1,4250,note_on_c,1,71,0
1,4250,note_on_c,1,63,100
1,4500,note_on_c,1,63,0
1,4500,note_on_c,1,64,100
1,4750,note_on_c,1,64,0
1,4750,note_on_c,1,62,100
1,5000,note_on_c,1,62,0
1,5000,note_on_c,1,70,100
1,5250,note_on_c,1,70,0
1,5250,note_on_c,1,68,100
1,5500,note_on_c,1,68,0
1,5500,note_on_c,1,67,100
1,5750,note_on_c,1,67,0
1,5750,note_on_c,1,69,100
1,6000,note_on_c,1,69,0
1,6000,note_on_c,1,69,100
1,6250,note_on_c,1,69,0
1,6250,note_on_c,1,71,100
1,6500,note_on_c,1,71,0
1,6500,note_on_c,1,70,100
1,6750,note_on_c,1,70,0
1,6750,note_on_c,1,68,100
1,7000,note_on_c,1,68,0
1,7000,note_on_c,1,64,100
1,7250,note_on_c,1,64,0
1,7250,note_on_c,1,62,100
1,7500,note_on_c,1,62,0
1,7500,note_on_c,1,63,100
1,7750,note_on_c,1,63,0
1,7750,note_on_c,1,67,100
1,8000,note_on_c,1,67,0
1,8000,note_on_c,1,65,100
1,8250,note_on_c,1,65,0
1,8250,note_on_c,1,61,100
1,8500,note_on_c,1,61,0
1,8500,note_on_c,1,60,100
1,8750,note_on_c,1,60,0
1,8750,note_on_c,1,66,100
1,9000,note_on_c,1,66,0
1,9000,note_on_c,1,66,100
1,9250,note_on_c,1,66,0
1,9250,note_on_c,1,60,100
1,9500,note_on_c,1,60,0
1,9500,note_on_c,1,61,100
1,9750,note_on_c,1,61,0
1,9750,note_on_c,1,65,100
1,10000,note_on_c,1,65,0
1,10000,note_on_c,1,67,100
1,10250,note_on_c,1,67,0
1,10250,note_on_c,1,63,100
1,10500,note_on_c,1,63,0
1,10500,note_on_c,1,62,100
1,10750,note_on_c,1,62,0
1,10750,note_on_c,1,64,100
1,11000,note_on_c,1,64,0
1,11000,note_on_c,1,68,100
1,11250,note_on_c,1,68,0
1,11250,note_on_c,1,70,100
1,11500,note_on_c,1,70,0
1,11500,note_on_c,1,71,100
1,11750,note_on_c,1,71,0
1,11750,note_on_c,1,69,100
1,12000,note_on_c,1,69,0
1,12000,note_on_c,1,70,100
1,12250,note_on_c,1,70,0
1,12250,note_on_c,1,68,100
1,12500,note_on_c,1,68,0
1,12500,note_on_c,1,69,100
1,12750,note_on_c,1,69,0
1,12750,note_on_c,1,71,100
1,13000,note_on_c,1,71,0
1,13000,note_on_c,1,63,100
1,13250,note_on_c,1,63,0
1,13250,note_on_c,1,65,100
1,13500,note_on_c,1,65,0
1,13500,note_on_c,1,64,100
1,13750,note_on_c,1,64,0
1,13750,note_on_c,1,60,100
1,14000,note_on_c,1,60,0
1,14000,note_on_c,1,62,100
1,14250,note_on_c,1,62,0
1,14250,note_on_c,1,66,100
1,14500,note_on_c,1,66,0
1,14500,note_on_c,1,67,100
1,14750,note_on_c,1,67,0
1,14750,note_on_c,1,61,100
1,15000,note_on_c,1,61,0
1,15000,note_on_c,1,61,100
1,15250,note_on_c,1,61,0
1,15250,note_on_c,1,71,100
1,15500,note_on_c,1,71,0
1,15500,note_on_c,1,60,100
1,15750,note_on_c,1,60,0
1,15750,note_on_c,1,62,100
1,16000,note_on_c,1,62,0
1,16000,note_on_c,1,66,100
1,16250,note_on_c,1,66,0
1,16250,note_on_c,1,68,100
1,16500,note_on_c,1,68,0
1,16500,note_on_c,1,67,100
1,16750,note_on_c,1,67,0
1,16750,note_on_c,1,63,100
1,17000,note_on_c,1,63,0
1,17000,note_on_c,1,65,100
1,17250,note_on_c,1,65,0
1,17250,note_on_c,1,69,100
1,17500,note_on_c,1,69,0
1,17500,note_on_c,1,70,100
1,17750,note_on_c,1,70,0
1,17750,note_on_c,1,64,100
1,18000,note_on_c,1,64,0
1,18000,note_on_c,1,70,100
1,18250,note_on_c,1,70,0
1,18250,note_on_c,1,60,100
1,18500,note_on_c,1,60,0
1,18500,note_on_c,1,71,100
1,18750,note_on_c,1,71,0
1,18750,note_on_c,1,69,100
1,19000,note_on_c,1,69,0
1,19000,note_on_c,1,65,100
1,19250,note_on_c,1,65,0
1,19250,note_on_c,1,63,100
1,19500,note_on_c,1,63,0
1,19500,note_on_c,1,64,100
1,19750,note_on_c,1,64,0
1,19750,note_on_c,1,68,100
1,20000,note_on_c,1,68,0
1,20000,note_on_c,1,66,100
1,20250,note_on_c,1,66,0
1,20250,note_on_c,1,62,100
1,20500,note_on_c,1,62,0
1,20500,note_on_c,1,61,100
1,20750,note_on_c,1,61,0
1,20750,note_on_c,1,67,100
1,21000,note_on_c,1,67,0
1,21000,note_on_c,1,71,100
1,21250,note_on_c,1,71,0
1,21250,note_on_c,1,65,100
1,21500,note_on_c,1,65,0
1,21500,note_on_c,1,66,100
1,21750,note_on_c,1,66,0
1,21750,note_on_c,1,70,100
1,22000,note_on_c,1,70,0
1,22000,note_on_c,1,60,100
1,22250,note_on_c,1,60,0
1,22250,note_on_c,1,68,100
1,22500,note_on_c,1,68,0
1,22500,note_on_c,1,67,100
1,22750,note_on_c,1,67,0
1,22750,note_on_c,1,69,100
1,23000,note_on_c,1,69,0
1,23000,note_on_c,1,61,100
1,23250,note_on_c,1,61,0
1,23250,note_on_c,1,63,100
1,23500,note_on_c,1,63,0
1,23500,note_on_c,1,64,100
1,23750,note_on_c,1,64,0
1,23750,note_on_c,1,62,100
1,24000,note_on_c,1,62,0
1,24000,note_on_c,1,60,100
1,24250,note_on_c,1,60,0
1,24250,note_on_c,1,62,100
1,24500,note_on_c,1,62,0
1,24500,note_on_c,1,61,100
1,24750,note_on_c,1,61,0
1,24750,note_on_c,1,71,100
1,25000,note_on_c,1,71,0
1,25000,note_on_c,1,67,100
1,25250,note_on_c,1,67,0
1,25250,note_on_c,1,65,100
1,25500,note_on_c,1,65,0
1,25500,note_on_c,1,66,100
1,25750,note_on_c,1,66,0
1,25750,note_on_c,1,70,100
1,26000,note_on_c,1,70,0
1,26000,note_on_c,1,68,100
1,26250,note_on_c,1,68,0
1,26250,note_on_c,1,64,100
1,26500,note_on_c,1,64,0
1,26500,note_on_c,1,63,100
1,26750,note_on_c,1,63,0
1,26750,note_on_c,1,69,100
1,27000,note_on_c,1,69,0
1,27000,note_on_c,1,67,100
1,27250,note_on_c,1,67,0
1,27250,note_on_c,1,69,100
1,27500,note_on_c,1,69,0
1,27500,note_on_c,1,68,100
1,27750,note_on_c,1,68,0
1,27750,note_on_c,1,66,100
1,28000,note_on_c,1,66,0
1,28000,note_on_c,1,62,100
1,28250,note_on_c,1,62,0
1,28250,note_on_c,1,60,100
1,28500,note_on_c,1,60,0
1,28500,note_on_c,1,61,100
1,28750,note_on_c,1,61,0
1,28750,note_on_c,1,65,100
1,29000,note_on_c,1,65,0
1,29000,note_on_c,1,63,100
1,29250,note_on_c,1,63,0
1,29250,note_on_c,1,71,100
1,29500,note_on_c,1,71,0
1,29500,note_on_c,1,70,100
1,29750,note_on_c,1,70,0
1,29750,note_on_c,1,64,100
1,30000,note_on_c,1,64,0
1,30000,note_on_c,1,63,100
1,30250,note_on_c,1,63,0
1,30250,note_on_c,1,69,100
1,30500,note_on_c,1,69,0
1,30500,note_on_c,1,68,100
1,30750,note_on_c,1,68,0
1,30750,note_on_c,1,64,100
1,31000,note_on_c,1,64,0
1,31000,note_on_c,1,62,100
1,31250,note_on_c,1,62,0
1,31250,note_on_c,1,66,100
1,31500,note_on_c,1,66,0
1,31500,note_on_c,1,67,100
1,31750,note_on_c,1,67,0
1,31750,note_on_c,1,65,100
1,32000,note_on_c,1,65,0
1,32000,note_on_c,1,61,100
1,32250,note_on_c,1,61,0
1,32250,note_on_c,1,71,100
1,32500,note_on_c,1,71,0
1,32500,note_on_c,1,70,100
1,32750,note_on_c,1,70,0
1,32750,note_on_c,1,60,100
1,33000,note_on_c,1,60,0
1,33000,note_on_c,1,64,100
1,33250,note_on_c,1,64,0
1,33250,note_on_c,1,70,100
1,33500,note_on_c,1,70,0
1,33500,note_on_c,1,71,100
1,33750,note_on_c,1,71,0
1,33750,note_on_c,1,63,100
1,34000,note_on_c,1,63,0
1,34000,note_on_c,1,65,100
1,34250,note_on_c,1,65,0
1,34250,note_on_c,1,61,100
1,34500,note_on_c,1,61,0
1,34500,note_on_c,1,60,100
1,34750,note_on_c,1,60,0
1,34750,note_on_c,1,62,100
1,35000,note_on_c,1,62,0
1,35000,note_on_c,1,66,100
1,35250,note_on_c,1,66,0
1,35250,note_on_c,1,68,100
1,35500,note_on_c,1,68,0
1,35500,note_on_c,1,69,100
1,35750,note_on_c,1,69,0
1,35750,note_on_c,1,67,100
1,36000,note_on_c,1,67,0
1,36000,note_on_c,1,67,100
1,36250,note_on_c,1,67,0
1,36250,note_on_c,1,61,100
1,36500,note_on_c,1,61,0
1,36500,note_on_c,1,62,100
1,36750,note_on_c,1,62,0
1,36750,note_on_c,1,66,100
1,37000,note_on_c,1,66,0
1,37000,note_on_c,1,68,100
1,37250,note_on_c,1,68,0
1,37250,note_on_c,1,64,100
1,37500,note_on_c,1,64,0
1,37500,note_on_c,1,63,100
1,37750,note_on_c,1,63,0
1,37750,note_on_c,1,65,100
1,38000,note_on_c,1,65,0
1,38000,note_on_c,1,69,100
1,38250,note_on_c,1,69,0
1,38250,note_on_c,1,71,100
1,38500,note_on_c,1,71,0
1,38500,note_on_c,1,60,100
1,38750,note_on_c,1,60,0
1,38750,note_on_c,1,70,100
1,39000,note_on_c,1,70,0
1,39000,note_on_c,1,71,100
1,39250,note_on_c,1,71,0
1,39250,note_on_c,1,61,100
1,39500,note_on_c,1,61,0
1,39500,note_on_c,1,60,100
1,39750,note_on_c,1,60,0
1,39750,note_on_c,1,70,100
1,40000,note_on_c,1,70,0
1,40000,note_on_c,1,66,100
1,40250,note_on_c,1,66,0
1,40250,note_on_c,1,64,100
1,40500,note_on_c,1,64,0
1,40500,note_on_c,1,65,100
1,40750,note_on_c,1,65,0
1,40750,note_on_c,1,69,100
1,41000,note_on_c,1,69,0
1,41000,note_on_c,1,67,100
1,41250,note_on_c,1,67,0
1,41250,note_on_c,1,63,100
1,41500,note_on_c,1,63,0
1,41500,note_on_c,1,62,100
1,41750,note_on_c,1,62,0
1,41750,note_on_c,1,68,100
1,42000,note_on_c,1,68,0
1,42000,note_on_c,1,71,100
1,42250,note_on_c,1,71,0
1,42250,note_on_c,1,69,100
1,42500,note_on_c,1,69,0
1,42500,note_on_c,1,70,100
1,42750,note_on_c,1,70,0
1,42750,note_on_c,1,60,100
1,43000,note_on_c,1,60,0
1,43000,note_on_c,1,64,100
1,43250,note_on_c,1,64,0
1,43250,note_on_c,1,66,100
1,43500,note_on_c,1,66,0
1,43500,note_on_c,1,65,100
1,43750,note_on_c,1,65,0
1,43750,note_on_c,1,61,100
1,44000,note_on_c,1,61,0
1,44000,note_on_c,1,63,100
1,44250,note_on_c,1,63,0
1,44250,note_on_c,1,67,100
1,44500,note_on_c,1,67,0
1,44500,note_on_c,1,68,100
1,44750,note_on_c,1,68,0
1,44750,note_on_c,1,62,100
1,45000,note_on_c,1,62,0
1,45000,note_on_c,1,64,100
1,45250,note_on_c,1,64,0
1,45250,note_on_c,1,70,100
1,45500,note_on_c,1,70,0
1,45500,note_on_c,1,69,100
1,45750,note_on_c,1,69,0
1,45750,note_on_c,1,65,100
1,46000,note_on_c,1,65,0
1,46000,note_on_c,1,63,100
1,46250,note_on_c,1,63,0
1,46250,note_on_c,1,67,100
1,46500,note_on_c,1,67,0
1,46500,note_on_c,1,68,100
1,46750,note_on_c,1,68,0
1,46750,note_on_c,1,66,100
1,47000,note_on_c,1,66,0
1,47000,note_on_c,1,62,100
1,47250,note_on_c,1,62,0
1,47250,note_on_c,1,60,100
1,47500,note_on_c,1,60,0
1,47500,note_on_c,1,71,100
1,47750,note_on_c,1,71,0
1,47750,note_on_c,1,61,100
1,48000,note_on_c,1,61,0
1,48000,note_on_c,1,61,100
1,48250,note_on_c,1,61,0
1,48250,note_on_c,1,63,100
1,48500,note_on_c,1,63,0
1,48500,note_on_c,1,62,100
1,48750,note_on_c,1,62,0
1,48750,note_on_c,1,60,100
1,49000,note_on_c,1,60,0
1,49000,note_on_c,1,68,100
1,49250,note_on_c,1,68,0
1,49250,note_on_c,1,66,100
1,49500,note_on_c,1,66,0
1,49500,note_on_c,1,67,100
1,49750,note_on_c,1,67,0
1,49750,note_on_c,1,71,100
1,50000,note_on_c,1,71,0
1,50000,note_on_c,1,69,100
1,50250,note_on_c,1,69,0
1,50250,note_on_c,1,65,100
1,50500,note_on_c,1,65,0
1,50500,note_on_c,1,64,100
1,50750,note_on_c,1,64,0
1,50750,note_on_c,1,70,100
1,51000,note_on_c,1,70,0
1,51000,note_on_c,1,65,100
1,51250,note_on_c,1,65,0
1,51250,note_on_c,1,63,100
1,51500,note_on_c,1,63,0
1,51500,note_on_c,1,64,100
1,51750,note_on_c,1,64,0
1,51750,note_on_c,1,66,100
1,52000,note_on_c,1,66,0
1,52000,note_on_c,1,70,100
1,52250,note_on_c,1,70,0
1,52250,note_on_c,1,60,100
1,52500,note_on_c,1,60,0
1,52500,note_on_c,1,71,100
1,52750,note_on_c,1,71,0
1,52750,note_on_c,1,67,100
1,53000,note_on_c,1,67,0
1,53000,note_on_c,1,69,100
1,53250,note_on_c,1,69,0
1,53250,note_on_c,1,61,100
1,53500,note_on_c,1,61,0
1,53500,note_on_c,1,62,100
1,53750,note_on_c,1,62,0
1,53750,note_on_c,1,68,100
1,54000,note_on_c,1,68,0
1,54000,note_on_c,1,66,100
1,54250,note_on_c,1,66,0
1,54250,note_on_c,1,60,100
1,54500,note_on_c,1,60,0
1,54500,note_on_c,1,71,100
1,54750,note_on_c,1,71,0
1,54750,note_on_c,1,67,100
1,55000,note_on_c,1,67,0
1,55000,note_on_c,1,65,100
1,55250,note_on_c,1,65,0
1,55250,note_on_c,1,69,100
1,55500,note_on_c,1,69,0
1,55500,note_on_c,1,70,100
1,55750,note_on_c,1,70,0
1,55750,note_on_c,1,68,100
1,56000,note_on_c,1,68,0
1,56000,note_on_c,1,64,100
1,56250,note_on_c,1,64,0
1,56250,note_on_c,1,62,100
1,56500,note_on_c,1,62,0
1,56500,note_on_c,1,61,100
1,56750,note_on_c,1,61,0
1,56750,note_on_c,1,63,100
1,57000,note_on_c,1,63,0
1,57000,note_on_c,1,71,100
1,57250,note_on_c,1,71,0
1,57250,note_on_c,1,61,100
1,57500,note_on_c,1,61,0
1,57500,note_on_c,1,60,100
1,57750,note_on_c,1,60,0
1,57750,note_on_c,1,70,100
1,58000,note_on_c,1,70,0
1,58000,note_on_c,1,66,100
1,58250,note_on_c,1,66,0
1,58250,note_on_c,1,64,100
1,58500,note_on_c,1,64,0
1,58500,note_on_c,1,65,100
1,58750,note_on_c,1,65,0
1,58750,note_on_c,1,69,100
1,59000,note_on_c,1,69,0
1,59000,note_on_c,1,67,100
1,59250,note_on_c,1,67,0
1,59250,note_on_c,1,63,100
1,59500,note_on_c,1,63,0
1,59500,note_on_c,1,62,100
1,59750,note_on_c,1,62,0
1,59750,note_on_c,1,68,100
1,60000,note_on_c,1,68,0
1,60000,note_on_c,1,65,100
1,60250,note_on_c,1,65,0
1,60250,note_on_c,1,63,100
1,60500,note_on_c,1,63,0
1,60500,note_on_c,1,64,100
1,60750,note_on_c,1,64,0
1,60750,note_on_c,1,66,100
1,61000,note_on_c,1,66,0
1,61000,note_on_c,1,70,100
1,61250,note_on_c,1,70,0
1,61250,note_on_c,1,60,100
1,61500,note_on_c,1,60,0
1,61500,note_on_c,1,71,100
1,61750,note_on_c,1,71,0
1,61750,note_on_c,1,67,100
1,62000,note_on_c,1,67,0
1,62000,note_on_c,1,69,100
1,62250,note_on_c,1,69,0
1,62250,note_on_c,1,61,100
1,62500,note_on_c,1,61,0
1,62500,note_on_c,1,62,100
1,62750,note_on_c,1,62,0
1,62750,note_on_c,1,68,100
1,63000,note_on_c,1,68,0
1,63000,note_on_c,1,64,100
1,63250,note_on_c,1,64,0
1,63250,note_on_c,1,70,100
1,63500,note_on_c,1,70,0
1,63500,note_on_c,1,71,100
1,63750,note_on_c,1,71,0
1,63750,note_on_c,1,63,100
1,64000,note_on_c,1,63,0
1,64000,note_on_c,1,65,100
1,64250,note_on_c,1,65,0
1,64250,note_on_c,1,61,100
1,64500,note_on_c,1,61,0
1,64500,note_on_c,1,60,100
1,64750,note_on_c,1,60,0
1,64750,note_on_c,1,62,100
1,65000,note_on_c,1,62,0
1,65000,note_on_c,1,66,100
1,65250,note_on_c,1,66,0
1,65250,note_on_c,1,68,100
1,65500,note_on_c,1,68,0
1,65500,note_on_c,1,69,100
1,65750,note_on_c,1,69,0
1,65750,note_on_c,1,67,100
1,66000,note_on_c,1,67,0
1,66000,note_on_c,1,67,100
1,66250,note_on_c,1,67,0
1,66250,note_on_c,1,69,100
1,66500,note_on_c,1,69,0
1,66500,note_on_c,1,68,100
1,66750,note_on_c,1,68,0
1,66750,note_on_c,1,66,100
1,67000,note_on_c,1,66,0
1,67000,note_on_c,1,62,100
1,67250,note_on_c,1,62,0
1,67250,note_on_c,1,60,100
1,67500,note_on_c,1,60,0
1,67500,note_on_c,1,61,100
1,67750,note_on_c,1,61,0
1,67750,note_on_c,1,65,100
1,68000,note_on_c,1,65,0
1,68000,note_on_c,1,63,100
1,68250,note_on_c,1,63,0
1,68250,note_on_c,1,71,100
1,68500,note_on_c,1,71,0
1,68500,note_on_c,1,70,100
1,68750,note_on_c,1,70,0
1,68750,note_on_c,1,64,100
1,69000,note_on_c,1,64,0
1,69000,note_on_c,1,68,100
1,69250,note_on_c,1,68,0
1,69250,note_on_c,1,66,100
1,69500,note_on_c,1,66,0
1,69500,note_on_c,1,67,100
1,69750,note_on_c,1,67,0
1,69750,note_on_c,1,69,100
1,70000,note_on_c,1,69,0
1,70000,note_on_c,1,61,100
1,70250,note_on_c,1,61,0
1,70250,note_on_c,1,63,100
1,70500,note_on_c,1,63,0
1,70500,note_on_c,1,62,100
1,70750,note_on_c,1,62,0
1,70750,note_on_c,1,70,100
1,71000,note_on_c,1,70,0
1,71000,note_on_c,1,60,100
1,71250,note_on_c,1,60,0
1,71250,note_on_c,1,64,100
1,71500,note_on_c,1,64,0
1,71500,note_on_c,1,65,100
1,71750,note_on_c,1,65,0
1,71750,note_on_c,1,71,100
1,72000,note_on_c,1,71,0
1,72000,note_on_c,1,64,100
1,72250,note_on_c,1,64,0
1,72250,note_on_c,1,62,100
1,72500,note_on_c,1,62,0
1,72500,note_on_c,1,63,100
1,72750,note_on_c,1,63,0
1,72750,note_on_c,1,65,100
1,73000,note_on_c,1,65,0
1,73000,note_on_c,1,69,100
1,73250,note_on_c,1,69,0
1,73250,note_on_c,1,71,100
1,73500,note_on_c,1,71,0
1,73500,note_on_c,1,70,100
1,73750,note_on_c,1,70,0
1,73750,note_on_c,1,66,100
1,74000,note_on_c,1,66,0
1,74000,note_on_c,1,68,100
1,74250,note_on_c,1,68,0
1,74250,note_on_c,1,60,100
1,74500,note_on_c,1,60,0
1,74500,note_on_c,1,61,100
1,74750,note_on_c,1,61,0
1,74750,note_on_c,1,67,100
1,75000,note_on_c,1,67,0
1,75000,note_on_c,1,70,100
1,75250,note_on_c,1,70,0
1,75250,note_on_c,1,68,100
1,75500,note_on_c,1,68,0
1,75500,note_on_c,1,69,100
1,75750,note_on_c,1,69,0
1,75750,note_on_c,1,71,100
1,76000,note_on_c,1,71,0
1,76000,note_on_c,1,63,100
1,76250,note_on_c,1,63,0
1,76250,note_on_c,1,65,100
1,76500,note_on_c,1,65,0
1,76500,note_on_c,1,64,100
1,76750,note_on_c,1,64,0
1,76750,note_on_c,1,60,100
1,77000,note_on_c,1,60,0
1,77000,note_on_c,1,62,100
1,77250,note_on_c,1,62,0
1,77250,note_on_c,1,66,100
1,77500,note_on_c,1,66,0
1,77500,note_on_c,1,67,100
1,77750,note_on_c,1,67,0
1,77750,note_on_c,1,61,100
1,78000,note_on_c,1,61,0
1,78000,note_on_c,1,63,100
1,78250,note_on_c,1,63,0
1,78250,note_on_c,1,61,100
1,78500,note_on_c,1,61,0
1,78500,note_on_c,1,62,100
1,78750,note_on_c,1,62,0
1,78750,note_on_c,1,64,100
1,79000,note_on_c,1,64,0
1,79000,note_on_c,1,68,100
1,79250,note_on_c,1,68,0
1,79250,note_on_c,1,70,100
1,79500,note_on_c,1,70,0
1,79500,note_on_c,1,69,100
1,79750,note_on_c,1,69,0
1,79750,note_on_c,1,65,100
1,80000,note_on_c,1,65,0
1,80000,note_on_c,1,67,100
1,80250,note_on_c,1,67,0
1,80250,note_on_c,1,71,100
1,80500,note_on_c,1,71,0
1,80500,note_on_c,1,60,100
1,80750,note_on_c,1,60,0
1,80750,note_on_c,1,66,100
1,81000,note_on_c,1,66,0
1,81000,note_on_c,1,65,100
1,81250,note_on_c,1,65,0
1,81250,note_on_c,1,71,100
1,81500,note_on_c,1,71,0
1,81500,note_on_c,1,70,100
1,81750,note_on_c,1,70,0
1,81750,note_on_c,1,66,100
1,82000,note_on_c,1,66,0
1,82000,note_on_c,1,64,100
1,82250,note_on_c,1,64,0
1,82250,note_on_c,1,68,100
1,82500,note_on_c,1,68,0
1,82500,note_on_c,1,69,100
1,82750,note_on_c,1,69,0
1,82750,note_on_c,1,67,100
1,83000,note_on_c,1,67,0
1,83000,note_on_c,1,63,100
1,83250,note_on_c,1,63,0
1,83250,note_on_c,1,61,100
1,83500,note_on_c,1,61,0
1,83500,note_on_c,1,60,100
1,83750,note_on_c,1,60,0
1,83750,note_on_c,1,62,100
1,84000,note_on_c,1,62,0
1,84000,note_on_c,1,68,100
1,84250,note_on_c,1,68,0
1,84250,note_on_c,1,70,100
1,84500,note_on_c,1,70,0
1,84500,note_on_c,1,69,100
1,84750,note_on_c,1,69,0
1,84750,note_on_c,1,67,100
1,85000,note_on_c,1,67,0
1,85000,note_on_c,1,63,100
1,85250,note_on_c,1,63,0
1,85250,note_on_c,1,61,100
1,85500,note_on_c,1,61,0
1,85500,note_on_c,1,62,100
1,85750,note_on_c,1,62,0
1,85750,note_on_c,1,66,100
1,86000,note_on_c,1,66,0
1,86000,note_on_c,1,64,100
1,86250,note_on_c,1,64,0
1,86250,note_on_c,1,60,100
1,86500,note_on_c,1,60,0
1,86500,note_on_c,1,71,100
1,86750,note_on_c,1,71,0
1,86750,note_on_c,1,65,100
1,87000,note_on_c,1,65,0
1,87000,note_on_c,1,67,100
1,87250,note_on_c,1,67,0
1,87250,note_on_c,1,61,100
1,87500,note_on_c,1,61,0
1,87500,note_on_c,1,60,100
1,87750,note_on_c,1,60,0
1,87750,note_on_c,1,68,100
1,88000,note_on_c,1,68,0
1,88000,note_on_c,1,66,100
1,88250,note_on_c,1,66,0
1,88250,note_on_c,1,70,100
1,88500,note_on_c,1,70,0
1,88500,note_on_c,1,71,100
1,88750,note_on_c,1,71,0
1,88750,note_on_c,1,69,100
1,89000,note_on_c,1,69,0
1,89000,note_on_c,1,65,100
1,89250,note_on_c,1,65,0
1,89250,note_on_c,1,63,100
1,89500,note_on_c,1,63,0
1,89500,note_on_c,1,62,100
1,89750,note_on_c,1,62,0
1,89750,note_on_c,1,64,100
1,90000,note_on_c,1,64,0
1,90000,note_on_c,1,68,100
1,90250,note_on_c,1,68,0
1,90250,note_on_c,1,62,100
1,90500,note_on_c,1,62,0
1,90500,note_on_c,1,63,100
1,90750,note_on_c,1,63,0
1,90750,note_on_c,1,67,100
1,91000,note_on_c,1,67,0
1,91000,note_on_c,1,69,100
1,91250,note_on_c,1,69,0
1,91250,note_on_c,1,65,100
1,91500,note_on_c,1,65,0
1,91500,note_on_c,1,64,100
1,91750,note_on_c,1,64,0
1,91750,note_on_c,1,66,100
1,92000,note_on_c,1,66,0
1,92000,note_on_c,1,70,100
1,92250,note_on_c,1,70,0
1,92250,note_on_c,1,60,100
1,92500,note_on_c,1,60,0
1,92500,note_on_c,1,61,100
1,92750,note_on_c,1,61,0
1,92750,note_on_c,1,71,100
1,93000,note_on_c,1,71,0
1,93000,note_on_c,1,65,100
1,93250,note_on_c,1,65,0
1,93250,note_on_c,1,63,100
1,93500,note_on_c,1,63,0
1,93500,note_on_c,1,64,100
1,93750,note_on_c,1,64,0
1,93750,note_on_c,1,66,100
1,94000,note_on_c,1,66,0
1,94000,note_on_c,1,70,100
1,94250,note_on_c,1,70,0
1,94250,note_on_c,1,60,100
1,94500,note_on_c,1,60,0
1,94500,note_on_c,1,71,100
1,94750,note_on_c,1,71,0
1,94750,note_on_c,1,67,100
1,95000,note_on_c,1,67,0
1,95000,note_on_c,1,69,100
1,95250,note_on_c,1,69,0
1,95250,note_on_c,1,61,100
1,95500,note_on_c,1,61,0
1,95500,note_on_c,1,62,100
1,95750,note_on_c,1,62,0
1,95750,note_on_c,1,68,100
1,96000,note_on_c,1,68,0
1,96000,note_on_c,1,70,100
1,96250,note_on_c,1,70,0
1,96250,note_on_c,1,64,100
1,96500,note_on_c,1,64,0
1,96500,note_on_c,1,63,100
1,96750,note_on_c,1,63,0
1,96750,note_on_c,1,71,100
1,97000,note_on_c,1,71,0
1,97000,note_on_c,1,69,100
1,97250,note_on_c,1,69,0
1,97250,note_on_c,1,61,100
1,97500,note_on_c,1,61,0
1,97500,note_on_c,1,62,100
1,97750,note_on_c,1,62,0
1,97750,note_on_c,1,60,100
1,98000,note_on_c,1,60,0
1,98000,note_on_c,1,68,100
1,98250,note_on_c,1,68,0
1,98250,note_on_c,1,66,100
1,98500,note_on_c,1,66,0
1,98500,note_on_c,1,65,100
1,98750,note_on_c,1,65,0
1,98750,note_on_c,1,67,100
1,99000,note_on_c,1,67,0
1,99000,note_on_c,1,71,100
1,99250,note_on_c,1,71,0
1,99250,note_on_c,1,65,100
1,99500,note_on_c,1,65,0
1,99500,note_on_c,1,66,100
1,99750,note_on_c,1,66,0
1,99750,note_on_c,1,70,100
1,1e+05,note_on_c,1,70,0
1,1e+05,note_on_c,1,60,100
1,100250,note_on_c,1,60,0
1,100250,note_on_c,1,68,100
1,100500,note_on_c,1,68,0
1,100500,note_on_c,1,67,100
1,100750,note_on_c,1,67,0
1,100750,note_on_c,1,69,100
1,101000,note_on_c,1,69,0
1,101000,note_on_c,1,61,100
1,101250,note_on_c,1,61,0
1,101250,note_on_c,1,63,100
1,101500,note_on_c,1,63,0
1,101500,note_on_c,1,64,100
1,101750,note_on_c,1,64,0
1,101750,note_on_c,1,62,100
1,102000,note_on_c,1,62,0
1,102000,note_on_c,1,68,100
1,102250,note_on_c,1,68,0
1,102250,note_on_c,1,62,100
1,102500,note_on_c,1,62,0
1,102500,note_on_c,1,61,100
1,102750,note_on_c,1,61,0
1,102750,note_on_c,1,69,100
1,103000,note_on_c,1,69,0
1,103000,note_on_c,1,67,100
1,103250,note_on_c,1,67,0
1,103250,note_on_c,1,71,100
1,103500,note_on_c,1,71,0
1,103500,note_on_c,1,60,100
1,103750,note_on_c,1,60,0
1,103750,note_on_c,1,70,100
1,104000,note_on_c,1,70,0
1,104000,note_on_c,1,66,100
1,104250,note_on_c,1,66,0
1,104250,note_on_c,1,64,100
1,104500,note_on_c,1,64,0
1,104500,note_on_c,1,63,100
1,104750,note_on_c,1,63,0
1,104750,note_on_c,1,65,100
1,105000,note_on_c,1,65,0
1,105000,note_on_c,1,61,100
1,105250,note_on_c,1,61,0
1,105250,note_on_c,1,71,100
1,105500,note_on_c,1,71,0
1,105500,note_on_c,1,60,100
1,105750,note_on_c,1,60,0
1,105750,note_on_c,1,62,100
1,106000,note_on_c,1,62,0
1,106000,note_on_c,1,66,100
1,106250,note_on_c,1,66,0
1,106250,note_on_c,1,68,100
1,106500,note_on_c,1,68,0
1,106500,note_on_c,1,67,100
1,106750,note_on_c,1,67,0
1,106750,note_on_c,1,63,100
1,107000,note_on_c,1,63,0
1,107000,note_on_c,1,65,100
1,107250,note_on_c,1,65,0
1,107250,note_on_c,1,69,100
1,107500,note_on_c,1,69,0
1,107500,note_on_c,1,70,100
1,107750,note_on_c,1,70,0
1,107750,note_on_c,1,64,100
1,108000,note_on_c,1,64,0
1,108000,note_on_c,1,66,100
1,108250,note_on_c,1,66,0
1,108250,note_on_c,1,64,100
1,108500,note_on_c,1,64,0
1,108500,note_on_c,1,65,100
1,108750,note_on_c,1,65,0
1,108750,note_on_c,1,67,100
1,109000,note_on_c,1,67,0
1,109000,note_on_c,1,71,100
1,109250,note_on_c,1,71,0
1,109250,note_on_c,1,61,100
1,109500,note_on_c,1,61,0
1,109500,note_on_c,1,60,100
1,109750,note_on_c,1,60,0
1,109750,note_on_c,1,68,100
1,110000,note_on_c,1,68,0
1,110000,note_on_c,1,70,100
1,110250,note_on_c,1,70,0
1,110250,note_on_c,1,62,100
1,110500,note_on_c,1,62,0
1,110500,note_on_c,1,63,100
1,110750,note_on_c,1,63,0
1,110750,note_on_c,1,69,100
1,111000,note_on_c,1,69,0
1,111000,note_on_c,1,62,100
1,111250,note_on_c,1,62,0
1,111250,note_on_c,1,68,100
1,111500,note_on_c,1,68,0
1,111500,note_on_c,1,69,100
1,111750,note_on_c,1,69,0
1,111750,note_on_c,1,61,100
1,112000,note_on_c,1,61,0
1,112000,note_on_c,1,63,100
1,112250,note_on_c,1,63,0
1,112250,note_on_c,1,71,100
1,112500,note_on_c,1,71,0
1,112500,note_on_c,1,70,100
1,112750,note_on_c,1,70,0
1,112750,note_on_c,1,60,100
1,113000,note_on_c,1,60,0
1,113000,note_on_c,1,64,100
1,113250,note_on_c,1,64,0
1,113250,note_on_c,1,66,100
1,113500,note_on_c,1,66,0
1,113500,note_on_c,1,67,100
1,113750,note_on_c,1,67,0
1,113750,note_on_c,1,65,100
1,114000,note_on_c,1,65,0
1,114000,note_on_c,1,68,100
1,114250,note_on_c,1,68,0
1,114250,note_on_c,1,62,100
1,114500,note_on_c,1,62,0
1,114500,note_on_c,1,63,100
1,114750,note_on_c,1,63,0
1,114750,note_on_c,1,67,100
1,115000,note_on_c,1,67,0
1,115000,note_on_c,1,69,100
1,115250,note_on_c,1,69,0
1,115250,note_on_c,1,65,100
1,115500,note_on_c,1,65,0
1,115500,note_on_c,1,64,100
1,115750,note_on_c,1,64,0
1,115750,note_on_c,1,66,100
1,116000,note_on_c,1,66,0
1,116000,note_on_c,1,70,100
1,116250,note_on_c,1,70,0
1,116250,note_on_c,1,60,100
1,116500,note_on_c,1,60,0
1,116500,note_on_c,1,61,100
1,116750,note_on_c,1,61,0
1,116750,note_on_c,1,71,100
1,117000,note_on_c,1,71,0
1,117000,note_on_c,1,62,100
1,117250,note_on_c,1,62,0
1,117250,note_on_c,1,64,100
1,117500,note_on_c,1,64,0
1,117500,note_on_c,1,63,100
1,117750,note_on_c,1,63,0
1,117750,note_on_c,1,61,100
1,118000,note_on_c,1,61,0
1,118000,note_on_c,1,69,100
1,118250,note_on_c,1,69,0
1,118250,note_on_c,1,67,100
1,118500,note_on_c,1,67,0
1,118500,note_on_c,1,68,100
1,118750,note_on_c,1,68,0
1,118750,note_on_c,1,60,100
1,119000,note_on_c,1,60,0
1,119000,note_on_c,1,70,100
1,119250,note_on_c,1,70,0
1,119250,note_on_c,1,66,100
1,119500,note_on_c,1,66,0
1,119500,note_on_c,1,65,100
1,119750,note_on_c,1,65,0
1,119750,note_on_c,1,71,100
1,120000,note_on_c,1,71,0
1,120000,note_on_c,1,65,100
1,120250,note_on_c,1,65,0
1,120250,note_on_c,1,71,100
1,120500,note_on_c,1,71,0
1,120500,note_on_c,1,60,100
1,120750,note_on_c,1,60,0
1,120750,note_on_c,1,64,100
1,121000,note_on_c,1,64,0
1,121000,note_on_c,1,66,100
1,121250,note_on_c,1,66,0
1,121250,note_on_c,1,62,100
1,121500,note_on_c,1,62,0
1,121500,note_on_c,1,61,100
1,121750,note_on_c,1,61,0
1,121750,note_on_c,1,63,100
1,122000,note_on_c,1,63,0
1,122000,note_on_c,1,67,100
1,122250,note_on_c,1,67,0
1,122250,note_on_c,1,69,100
1,122500,note_on_c,1,69,0
1,122500,note_on_c,1,70,100
1,122750,note_on_c,1,70,0
1,122750,note_on_c,1,68,100
1,123000,note_on_c,1,68,0
1,123000,note_on_c,1,68,100
1,123250,note_on_c,1,68,0
1,123250,note_on_c,1,62,100
1,123500,note_on_c,1,62,0
1,123500,note_on_c,1,63,100
1,123750,note_on_c,1,63,0
1,123750,note_on_c,1,67,100
1,124000,note_on_c,1,67,0
1,124000,note_on_c,1,69,100
1,124250,note_on_c,1,69,0
1,124250,note_on_c,1,65,100
1,124500,note_on_c,1,65,0
1,124500,note_on_c,1,64,100
1,124750,note_on_c,1,64,0
1,124750,note_on_c,1,66,100
1,125000,note_on_c,1,66,0
1,125000,note_on_c,1,70,100
1,125250,note_on_c,1,70,0
1,125250,note_on_c,1,60,100
1,125500,note_on_c,1,60,0
1,125500,note_on_c,1,61,100
1,125750,note_on_c,1,61,0
1,125750,note_on_c,1,71,100
1,126000,note_on_c,1,71,0
1,126000,note_on_c,1,63,100
1,126250,note_on_c,1,63,0
1,126250,note_on_c,1,65,100
1,126500,note_on_c,1,65,0
1,126500,note_on_c,1,64,100
1,126750,note_on_c,1,64,0
1,126750,note_on_c,1,62,100
1,127000,note_on_c,1,62,0
1,127000,note_on_c,1,70,100
1,127250,note_on_c,1,70,0
1,127250,note_on_c,1,68,100
1,127500,note_on_c,1,68,0
1,127500,note_on_c,1,69,100
1,127750,note_on_c,1,69,0
1,127750,note_on_c,1,61,100
1,128000,note_on_c,1,61,0
1,128000,note_on_c,1,71,100
1,128250,note_on_c,1,71,0
1,128250,note_on_c,1,67,100
1,128500,note_on_c,1,67,0
1,128500,note_on_c,1,66,100
1,128750,note_on_c,1,66,0
1,128750,note_on_c,1,60,100
1,129000,note_on_c,1,60,0
1,129000,note_on_c,1,67,100
1,129250,note_on_c,1,67,0
1,129250,note_on_c,1,61,100
1,129500,note_on_c,1,61,0
1,129500,note_on_c,1,62,100
1,129750,note_on_c,1,62,0
1,129750,note_on_c,1,66,100
1,130000,note_on_c,1,66,0
1,130000,note_on_c,1,68,100
1,130250,note_on_c,1,68,0
1,130250,note_on_c,1,64,100
1,130500,note_on_c,1,64,0
1,130500,note_on_c,1,63,100
1,130750,note_on_c,1,63,0
1,130750,note_on_c,1,65,100
1,131000,note_on_c,1,65,0
1,131000,note_on_c,1,69,100
1,131250,note_on_c,1,69,0
1,131250,note_on_c,1,71,100
1,131500,note_on_c,1,71,0
1,131500,note_on_c,1,60,100
1,131750,note_on_c,1,60,0
1,131750,note_on_c,1,70,100
1,132000,note_on_c,1,70,0
1,132000,note_on_c,1,69,100
1,132250,note_on_c,1,69,0
1,132250,note_on_c,1,63,100
1,132500,note_on_c,1,63,0
1,132500,note_on_c,1,62,100
1,132750,note_on_c,1,62,0
1,132750,note_on_c,1,70,100
1,133000,note_on_c,1,70,0
1,133000,note_on_c,1,68,100
1,133250,note_on_c,1,68,0
1,133250,note_on_c,1,60,100
1,133500,note_on_c,1,60,0
1,133500,note_on_c,1,61,100
1,133750,note_on_c,1,61,0
1,133750,note_on_c,1,71,100
1,134000,note_on_c,1,71,0
1,134000,note_on_c,1,67,100
1,134250,note_on_c,1,67,0
1,134250,note_on_c,1,65,100
1,134500,note_on_c,1,65,0
1,134500,note_on_c,1,64,100
1,134750,note_on_c,1,64,0
1,134750,note_on_c,1,66,100
1,135000,note_on_c,1,66,0
1,135000,note_on_c,1,66,100
1,135250,note_on_c,1,66,0
1,135250,note_on_c,1,64,100
1,135500,note_on_c,1,64,0
1,135500,note_on_c,1,65,100
1,135750,note_on_c,1,65,0
1,135750,note_on_c,1,67,100
1,136000,note_on_c,1,67,0
1,136000,note_on_c,1,71,100
1,136250,note_on_c,1,71,0
1,136250,note_on_c,1,61,100
1,136500,note_on_c,1,61,0
1,136500,note_on_c,1,60,100
1,136750,note_on_c,1,60,0
1,136750,note_on_c,1,68,100
1,137000,note_on_c,1,68,0
1,137000,note_on_c,1,70,100
1,137250,note_on_c,1,70,0
1,137250,note_on_c,1,62,100
1,137500,note_on_c,1,62,0
1,137500,note_on_c,1,63,100
1,137750,note_on_c,1,63,0
1,137750,note_on_c,1,69,100
1,138000,note_on_c,1,69,0
1,138000,note_on_c,1,70,100
1,138250,note_on_c,1,70,0
1,138250,note_on_c,1,64,100
1,138500,note_on_c,1,64,0
1,138500,note_on_c,1,63,100
1,138750,note_on_c,1,63,0
1,138750,note_on_c,1,71,100
1,139000,note_on_c,1,71,0
1,139000,note_on_c,1,69,100
1,139250,note_on_c,1,69,0
1,139250,note_on_c,1,61,100
1,139500,note_on_c,1,61,0
1,139500,note_on_c,1,62,100
1,139750,note_on_c,1,62,0
1,139750,note_on_c,1,60,100
1,140000,note_on_c,1,60,0
1,140000,note_on_c,1,68,100
1,140250,note_on_c,1,68,0
1,140250,note_on_c,1,66,100
1,140500,note_on_c,1,66,0
1,140500,note_on_c,1,65,100
1,140750,note_on_c,1,65,0
1,140750,note_on_c,1,67,100
1,141000,note_on_c,1,67,0
1,141000,note_on_c,1,66,100
1,141250,note_on_c,1,66,0
1,141250,note_on_c,1,64,100
1,141500,note_on_c,1,64,0
1,141500,note_on_c,1,65,100
1,141750,note_on_c,1,65,0
1,141750,note_on_c,1,67,100
1,142000,note_on_c,1,67,0
1,142000,note_on_c,1,71,100
1,142250,note_on_c,1,71,0
1,142250,note_on_c,1,61,100
1,142500,note_on_c,1,61,0
1,142500,note_on_c,1,60,100
1,142750,note_on_c,1,60,0
1,142750,note_on_c,1,68,100
1,143000,note_on_c,1,68,0
1,143000,note_on_c,1,70,100
1,143250,note_on_c,1,70,0
1,143250,note_on_c,1,62,100
1,143500,note_on_c,1,62,0
1,143500,note_on_c,1,63,100
1,143750,note_on_c,1,63,0
1,143750,note_on_c,1,69,100
1,144000,note_on_c,1,69,0
1,144000,note_on_c,1,66,100
1,144250,note_on_c,1,66,0
1,144250,note_on_c,1,68,100
1,144500,note_on_c,1,68,0
1,144500,note_on_c,1,67,100
1,144750,note_on_c,1,67,0
1,144750,note_on_c,1,65,100
1,145000,note_on_c,1,65,0
1,145000,note_on_c,1,61,100
1,145250,note_on_c,1,61,0
1,145250,note_on_c,1,71,100
1,145500,note_on_c,1,71,0
1,145500,note_on_c,1,60,100
1,145750,note_on_c,1,60,0
1,145750,note_on_c,1,64,100
1,146000,note_on_c,1,64,0
1,146000,note_on_c,1,62,100
1,146250,note_on_c,1,62,0
1,146250,note_on_c,1,70,100
1,146500,note_on_c,1,70,0
1,146500,note_on_c,1,69,100
1,146750,note_on_c,1,69,0
1,146750,note_on_c,1,63,100
1,147000,note_on_c,1,63,0
1,147000,note_on_c,1,65,100
1,147250,note_on_c,1,65,0
1,147250,note_on_c,1,63,100
1,147500,note_on_c,1,63,0
1,147500,note_on_c,1,64,100
1,147750,note_on_c,1,64,0
1,147750,note_on_c,1,66,100
1,148000,note_on_c,1,66,0
1,148000,note_on_c,1,70,100
1,148250,note_on_c,1,70,0
1,148250,note_on_c,1,60,100
1,148500,note_on_c,1,60,0
1,148500,note_on_c,1,71,100
1,148750,note_on_c,1,71,0
1,148750,note_on_c,1,67,100
1,149000,note_on_c,1,67,0
1,149000,note_on_c,1,69,100
1,149250,note_on_c,1,69,0
1,149250,note_on_c,1,61,100
1,149500,note_on_c,1,61,0
1,149500,note_on_c,1,62,100
1,149750,note_on_c,1,62,0
1,149750,note_on_c,1,68,100
1,150000,note_on_c,1,68,0
1,150000,note_on_c,1,61,100
1,150250,note_on_c,1,61,0
1,150250,note_on_c,1,63,100
1,150500,note_on_c,1,63,0
1,150500,note_on_c,1,62,100
1,150750,note_on_c,1,62,0
1,150750,note_on_c,1,60,100
1,151000,note_on_c,1,60,0
1,151000,note_on_c,1,68,100
1,151250,note_on_c,1,68,0
1,151250,note_on_c,1,66,100
1,151500,note_on_c,1,66,0
1,151500,note_on_c,1,67,100
1,151750,note_on_c,1,67,0
1,151750,note_on_c,1,71,100
1,152000,note_on_c,1,71,0
1,152000,note_on_c,1,69,100
1,152250,note_on_c,1,69,0
1,152250,note_on_c,1,65,100
1,152500,note_on_c,1,65,0
1,152500,note_on_c,1,64,100
1,152750,note_on_c,1,64,0
1,152750,note_on_c,1,70,100
1,153000,note_on_c,1,70,0
1,153000,note_on_c,1,64,100
1,153250,note_on_c,1,64,0
1,153250,note_on_c,1,70,100
1,153500,note_on_c,1,70,0
1,153500,note_on_c,1,71,100
1,153750,note_on_c,1,71,0
1,153750,note_on_c,1,63,100
1,154000,note_on_c,1,63,0
1,154000,note_on_c,1,65,100
1,154250,note_on_c,1,65,0
1,154250,note_on_c,1,61,100
1,154500,note_on_c,1,61,0
1,154500,note_on_c,1,60,100
1,154750,note_on_c,1,60,0
1,154750,note_on_c,1,62,100
1,155000,note_on_c,1,62,0
1,155000,note_on_c,1,66,100
1,155250,note_on_c,1,66,0
1,155250,note_on_c,1,68,100
1,155500,note_on_c,1,68,0
1,155500,note_on_c,1,69,100
1,155750,note_on_c,1,69,0
1,155750,note_on_c,1,67,100
1,156000,note_on_c,1,67,0
1,156000,note_on_c,1,63,100
1,156250,note_on_c,1,63,0
1,156250,note_on_c,1,65,100
1,156500,note_on_c,1,65,0
1,156500,note_on_c,1,64,100
1,156750,note_on_c,1,64,0
1,156750,note_on_c,1,62,100
1,157000,note_on_c,1,62,0
1,157000,note_on_c,1,70,100
1,157250,note_on_c,1,70,0
1,157250,note_on_c,1,68,100
1,157500,note_on_c,1,68,0
1,157500,note_on_c,1,69,100
1,157750,note_on_c,1,69,0
1,157750,note_on_c,1,61,100
1,158000,note_on_c,1,61,0
1,158000,note_on_c,1,71,100
1,158250,note_on_c,1,71,0
1,158250,note_on_c,1,67,100
1,158500,note_on_c,1,67,0
1,158500,note_on_c,1,66,100
1,158750,note_on_c,1,66,0
1,158750,note_on_c,1,60,100
1,159000,note_on_c,1,60,0
1,159000,note_on_c,1,61,100
1,159250,note_on_c,1,61,0
1,159250,note_on_c,1,71,100
1,159500,note_on_c,1,71,0
1,159500,note_on_c,1,60,100
1,159750,note_on_c,1,60,0
1,159750,note_on_c,1,62,100
1,160000,note_on_c,1,62,0
1,160000,note_on_c,1,66,100
1,160250,note_on_c,1,66,0
1,160250,note_on_c,1,68,100
1,160500,note_on_c,1,68,0
1,160500,note_on_c,1,67,100
1,160750,note_on_c,1,67,0
1,160750,note_on_c,1,63,100
1,161000,note_on_c,1,63,0
1,161000,note_on_c,1,65,100
1,161250,note_on_c,1,65,0
1,161250,note_on_c,1,69,100
1,161500,note_on_c,1,69,0
1,161500,note_on_c,1,70,100
1,161750,note_on_c,1,70,0
1,161750,note_on_c,1,64,100
1,162000,note_on_c,1,64,0
1,162000,note_on_c,1,63,100
1,162250,note_on_c,1,63,0
1,162250,note_on_c,1,69,100
1,162500,note_on_c,1,69,0
1,162500,note_on_c,1,70,100
1,162750,note_on_c,1,70,0
1,162750,note_on_c,1,62,100
1,163000,note_on_c,1,62,0
1,163000,note_on_c,1,64,100
1,163250,note_on_c,1,64,0
1,163250,note_on_c,1,60,100
1,163500,note_on_c,1,60,0
1,163500,note_on_c,1,71,100
1,163750,note_on_c,1,71,0
1,163750,note_on_c,1,61,100
1,164000,note_on_c,1,61,0
1,164000,note_on_c,1,65,100
1,164250,note_on_c,1,65,0
1,164250,note_on_c,1,67,100
1,164500,note_on_c,1,67,0
1,164500,note_on_c,1,68,100
1,164750,note_on_c,1,68,0
1,164750,note_on_c,1,66,100
1,165000,note_on_c,1,66,0
1,165000,note_on_c,1,71,100
1,165250,note_on_c,1,71,0
1,165250,note_on_c,1,61,100
1,165500,note_on_c,1,61,0
1,165500,note_on_c,1,60,100
1,165750,note_on_c,1,60,0
1,165750,note_on_c,1,70,100
1,166000,note_on_c,1,70,0
1,166000,note_on_c,1,66,100
1,166250,note_on_c,1,66,0
1,166250,note_on_c,1,64,100
1,166500,note_on_c,1,64,0
1,166500,note_on_c,1,65,100
1,166750,note_on_c,1,65,0
1,166750,note_on_c,1,69,100
1,167000,note_on_c,1,69,0
1,167000,note_on_c,1,67,100
1,167250,note_on_c,1,67,0
1,167250,note_on_c,1,63,100
1,167500,note_on_c,1,63,0
1,167500,note_on_c,1,62,100
1,167750,note_on_c,1,62,0
1,167750,note_on_c,1,68,100
1,168000,note_on_c,1,68,0
1,168000,note_on_c,1,67,100
1,168250,note_on_c,1,67,0
1,168250,note_on_c,1,69,100
1,168500,note_on_c,1,69,0
1,168500,note_on_c,1,68,100
1,168750,note_on_c,1,68,0
1,168750,note_on_c,1,66,100
1,169000,note_on_c,1,66,0
1,169000,note_on_c,1,62,100
1,169250,note_on_c,1,62,0
1,169250,note_on_c,1,60,100
1,169500,note_on_c,1,60,0
1,169500,note_on_c,1,61,100
1,169750,note_on_c,1,61,0
1,169750,note_on_c,1,65,100
1,170000,note_on_c,1,65,0
1,170000,note_on_c,1,63,100
1,170250,note_on_c,1,63,0
1,170250,note_on_c,1,71,100
1,170500,note_on_c,1,71,0
1,170500,note_on_c,1,70,100
1,170750,note_on_c,1,70,0
1,170750,note_on_c,1,64,100
1,171000,note_on_c,1,64,0
1,171000,note_on_c,1,65,100
1,171250,note_on_c,1,65,0
1,171250,note_on_c,1,63,100
1,171500,note_on_c,1,63,0
1,171500,note_on_c,1,64,100
1,171750,note_on_c,1,64,0
1,171750,note_on_c,1,66,100
1,172000,note_on_c,1,66,0
1,172000,note_on_c,1,70,100
1,172250,note_on_c,1,70,0
1,172250,note_on_c,1,60,100
1,172500,note_on_c,1,60,0
1,172500,note_on_c,1,71,100
1,172750,note_on_c,1,71,0
1,172750,note_on_c,1,67,100
1,173000,note_on_c,1,67,0
1,173000,note_on_c,1,69,100
1,173250,note_on_c,1,69,0
1,173250,note_on_c,1,61,100
1,173500,note_on_c,1,61,0
1,173500,note_on_c,1,62,100
1,173750,note_on_c,1,62,0
1,173750,note_on_c,1,68,100
1,174000,note_on_c,1,68,0
1,174000,note_on_c,1,68,100
1,174250,note_on_c,1,68,0
1,174250,note_on_c,1,62,100
1,174500,note_on_c,1,62,0
1,174500,note_on_c,1,61,100
1,174750,note_on_c,1,61,0
1,174750,note_on_c,1,69,100
1,175000,note_on_c,1,69,0
1,175000,note_on_c,1,67,100
1,175250,note_on_c,1,67,0
1,175250,note_on_c,1,71,100
1,175500,note_on_c,1,71,0
1,175500,note_on_c,1,60,100
1,175750,note_on_c,1,60,0
1,175750,note_on_c,1,70,100
1,176000,note_on_c,1,70,0
1,176000,note_on_c,1,66,100
1,176250,note_on_c,1,66,0
1,176250,note_on_c,1,64,100
1,176500,note_on_c,1,64,0
1,176500,note_on_c,1,63,100
1,176750,note_on_c,1,63,0
1,176750,note_on_c,1,65,100
1,177000,note_on_c,1,65,0
1,177000,note_on_c,1,61,100
1,177250,note_on_c,1,61,0
1,177250,note_on_c,1,63,100
1,177500,note_on_c,1,63,0
1,177500,note_on_c,1,62,100
1,177750,note_on_c,1,62,0
1,177750,note_on_c,1,60,100
1,178000,note_on_c,1,60,0
1,178000,note_on_c,1,68,100
1,178250,note_on_c,1,68,0
1,178250,note_on_c,1,66,100
1,178500,note_on_c,1,66,0
1,178500,note_on_c,1,67,100
1,178750,note_on_c,1,67,0
1,178750,note_on_c,1,71,100
1,179000,note_on_c,1,71,0
1,179000,note_on_c,1,69,100
1,179250,note_on_c,1,69,0
1,179250,note_on_c,1,65,100
1,179500,note_on_c,1,65,0
1,179500,note_on_c,1,64,100
1,179750,note_on_c,1,64,0
1,179750,note_on_c,1,70,100
1,180000,note_on_c,1,70,0
1,180000,note_on_c,1,61,100
1,180250,note_on_c,1,61,0
1,180250,note_on_c,1,67,100
1,180500,note_on_c,1,67,0
1,180500,note_on_c,1,68,100
1,180750,note_on_c,1,68,0
1,180750,note_on_c,1,60,100
1,181000,note_on_c,1,60,0
1,181000,note_on_c,1,62,100
1,181250,note_on_c,1,62,0
1,181250,note_on_c,1,70,100
1,181500,note_on_c,1,70,0
1,181500,note_on_c,1,69,100
1,181750,note_on_c,1,69,0
1,181750,note_on_c,1,71,100
1,182000,note_on_c,1,71,0
1,182000,note_on_c,1,63,100
1,182250,note_on_c,1,63,0
1,182250,note_on_c,1,65,100
1,182500,note_on_c,1,65,0
1,182500,note_on_c,1,66,100
1,182750,note_on_c,1,66,0
1,182750,note_on_c,1,64,100
1,183000,note_on_c,1,64,0
1,183000,note_on_c,1,61,100
1,183250,note_on_c,1,61,0
1,183250,note_on_c,1,67,100
1,183500,note_on_c,1,67,0
1,183500,note_on_c,1,66,100
1,183750,note_on_c,1,66,0
1,183750,note_on_c,1,62,100
1,184000,note_on_c,1,62,0
1,184000,note_on_c,1,60,100
1,184250,note_on_c,1,60,0
1,184250,note_on_c,1,64,100
1,184500,note_on_c,1,64,0
1,184500,note_on_c,1,65,100
1,184750,note_on_c,1,65,0
1,184750,note_on_c,1,63,100
1,185000,note_on_c,1,63,0
1,185000,note_on_c,1,71,100
1,185250,note_on_c,1,71,0
1,185250,note_on_c,1,69,100
1,185500,note_on_c,1,69,0
1,185500,note_on_c,1,68,100
1,185750,note_on_c,1,68,0
1,185750,note_on_c,1,70,100
1,186000,note_on_c,1,70,0
1,186000,note_on_c,1,60,100
1,186250,note_on_c,1,60,0
1,186250,note_on_c,1,70,100
1,186500,note_on_c,1,70,0
1,186500,note_on_c,1,71,100
1,186750,note_on_c,1,71,0
1,186750,note_on_c,1,61,100
1,187000,note_on_c,1,61,0
1,187000,note_on_c,1,65,100
1,187250,note_on_c,1,65,0
1,187250,note_on_c,1,67,100
1,187500,note_on_c,1,67,0
1,187500,note_on_c,1,66,100
1,187750,note_on_c,1,66,0
1,187750,note_on_c,1,62,100
1,188000,note_on_c,1,62,0
1,188000,note_on_c,1,64,100
1,188250,note_on_c,1,64,0
1,188250,note_on_c,1,68,100
1,188500,note_on_c,1,68,0
1,188500,note_on_c,1,69,100
1,188750,note_on_c,1,69,0
1,188750,note_on_c,1,63,100
1,189000,note_on_c,1,63,0
1,189000,note_on_c,1,63,100
1,189250,note_on_c,1,63,0
1,189250,note_on_c,1,65,100
1,189500,note_on_c,1,65,0
1,189500,note_on_c,1,64,100
1,189750,note_on_c,1,64,0
1,189750,note_on_c,1,62,100
1,190000,note_on_c,1,62,0
1,190000,note_on_c,1,70,100
1,190250,note_on_c,1,70,0
1,190250,note_on_c,1,68,100
1,190500,note_on_c,1,68,0
1,190500,note_on_c,1,69,100
1,190750,note_on_c,1,69,0
1,190750,note_on_c,1,61,100
1,191000,note_on_c,1,61,0
1,191000,note_on_c,1,71,100
1,191250,note_on_c,1,71,0
1,191250,note_on_c,1,67,100
1,191500,note_on_c,1,67,0
1,191500,note_on_c,1,66,100
1,191750,note_on_c,1,66,0
1,191750,note_on_c,1,60,100
1,192000,note_on_c,1,60,0
1,192000,note_on_c,1,70,100
1,192250,note_on_c,1,70,0
1,192250,note_on_c,1,60,100
1,192500,note_on_c,1,60,0
1,192500,note_on_c,1,71,100
1,192750,note_on_c,1,71,0
1,192750,note_on_c,1,69,100
1,193000,note_on_c,1,69,0
1,193000,note_on_c,1,65,100
1,193250,note_on_c,1,65,0
1,193250,note_on_c,1,63,100
1,193500,note_on_c,1,63,0
1,193500,note_on_c,1,64,100
1,193750,note_on_c,1,64,0
1,193750,note_on_c,1,68,100
1,194000,note_on_c,1,68,0
1,194000,note_on_c,1,66,100
1,194250,note_on_c,1,66,0
1,194250,note_on_c,1,62,100
1,194500,note_on_c,1,62,0
1,194500,note_on_c,1,61,100
1,194750,note_on_c,1,61,0
1,194750,note_on_c,1,67,100
1,195000,note_on_c,1,67,0
1,195000,note_on_c,1,62,100
1,195250,note_on_c,1,62,0
1,195250,note_on_c,1,64,100
1,195500,note_on_c,1,64,0
1,195500,note_on_c,1,63,100
1,195750,note_on_c,1,63,0
1,195750,note_on_c,1,61,100
1,196000,note_on_c,1,61,0
1,196000,note_on_c,1,69,100
1,196250,note_on_c,1,69,0
1,196250,note_on_c,1,67,100
1,196500,note_on_c,1,67,0
1,196500,note_on_c,1,68,100
1,196750,note_on_c,1,68,0
1,196750,note_on_c,1,60,100
1,197000,note_on_c,1,60,0
1,197000,note_on_c,1,70,100
1,197250,note_on_c,1,70,0
1,197250,note_on_c,1,66,100
1,197500,note_on_c,1,66,0
1,197500,note_on_c,1,65,100
1,197750,note_on_c,1,65,0
1,197750,note_on_c,1,71,100
1,198000,note_on_c,1,71,0
1,198000,note_on_c,1,61,100
1,198250,note_on_c,1,61,0
1,198250,note_on_c,1,67,100
1,198500,note_on_c,1,67,0
1,198500,note_on_c,1,68,100
1,198750,note_on_c,1,68,0
1,198750,note_on_c,1,60,100
1,199000,note_on_c,1,60,0
1,199000,note_on_c,1,62,100
1,199250,note_on_c,1,62,0
1,199250,note_on_c,1,70,100
1,199500,note_on_c,1,70,0
1,199500,note_on_c,1,69,100
1,199750,note_on_c,1,69,0
1,199750,note_on_c,1,71,100
1,2e+05,note_on_c,1,71,0
1,2e+05,note_on_c,1,63,100
1,200250,note_on_c,1,63,0
1,200250,note_on_c,1,65,100
1,200500,note_on_c,1,65,0
1,200500,note_on_c,1,66,100
1,200750,note_on_c,1,66,0
1,200750,note_on_c,1,64,100
1,201000,note_on_c,1,64,0
1,201000,note_on_c,1,62,100
1,201250,note_on_c,1,62,0
1,201250,note_on_c,1,60,100
1,201500,note_on_c,1,60,0
1,201500,note_on_c,1,61,100
1,201750,note_on_c,1,61,0
1,201750,note_on_c,1,63,100
1,202000,note_on_c,1,63,0
1,202000,note_on_c,1,67,100
1,202250,note_on_c,1,67,0
1,202250,note_on_c,1,69,100
1,202500,note_on_c,1,69,0
1,202500,note_on_c,1,68,100
1,202750,note_on_c,1,68,0
1,202750,note_on_c,1,64,100
1,203000,note_on_c,1,64,0
1,203000,note_on_c,1,66,100
1,203250,note_on_c,1,66,0
1,203250,note_on_c,1,70,100
1,203500,note_on_c,1,70,0
1,203500,note_on_c,1,71,100
1,203750,note_on_c,1,71,0
1,203750,note_on_c,1,65,100
1,204000,note_on_c,1,65,0
1,204000,note_on_c,1,63,100
1,204250,note_on_c,1,63,0
1,204250,note_on_c,1,69,100
1,204500,note_on_c,1,69,0
1,204500,note_on_c,1,68,100
1,204750,note_on_c,1,68,0
1,204750,note_on_c,1,64,100
1,205000,note_on_c,1,64,0
1,205000,note_on_c,1,62,100
1,205250,note_on_c,1,62,0
1,205250,note_on_c,1,66,100
1,205500,note_on_c,1,66,0
1,205500,note_on_c,1,67,100
1,205750,note_on_c,1,67,0
1,205750,note_on_c,1,65,100
1,206000,note_on_c,1,65,0
1,206000,note_on_c,1,61,100
1,206250,note_on_c,1,61,0
1,206250,note_on_c,1,71,100
1,206500,note_on_c,1,71,0
1,206500,note_on_c,1,70,100
1,206750,note_on_c,1,70,0
1,206750,note_on_c,1,60,100
1,207000,note_on_c,1,60,0
1,207000,note_on_c,1,65,100
1,207250,note_on_c,1,65,0
1,207250,note_on_c,1,71,100
1,207500,note_on_c,1,71,0
1,207500,note_on_c,1,70,100
1,207750,note_on_c,1,70,0
1,207750,note_on_c,1,66,100
1,208000,note_on_c,1,66,0
1,208000,note_on_c,1,64,100
1,208250,note_on_c,1,64,0
1,208250,note_on_c,1,68,100
1,208500,note_on_c,1,68,0
1,208500,note_on_c,1,69,100
1,208750,note_on_c,1,69,0
1,208750,note_on_c,1,67,100
1,209000,note_on_c,1,67,0
1,209000,note_on_c,1,63,100
1,209250,note_on_c,1,63,0
1,209250,note_on_c,1,61,100
1,209500,note_on_c,1,61,0
1,209500,note_on_c,1,60,100
1,209750,note_on_c,1,60,0
1,209750,note_on_c,1,62,100
1,210000,note_on_c,1,62,0
1,210000,note_on_c,1,67,100
1,210250,note_on_c,1,67,0
1,210250,note_on_c,1,65,100
1,210500,note_on_c,1,65,0
1,210500,note_on_c,1,66,100
1,210750,note_on_c,1,66,0
1,210750,note_on_c,1,68,100
1,211000,note_on_c,1,68,0
1,211000,note_on_c,1,60,100
1,211250,note_on_c,1,60,0
1,211250,note_on_c,1,62,100
1,211500,note_on_c,1,62,0
1,211500,note_on_c,1,61,100
1,211750,note_on_c,1,61,0
1,211750,note_on_c,1,69,100
1,212000,note_on_c,1,69,0
1,212000,note_on_c,1,71,100
1,212250,note_on_c,1,71,0
1,212250,note_on_c,1,63,100
1,212500,note_on_c,1,63,0
1,212500,note_on_c,1,64,100
1,212750,note_on_c,1,64,0
1,212750,note_on_c,1,70,100
1,213000,note_on_c,1,70,0
1,213000,note_on_c,1,64,100
1,213250,note_on_c,1,64,0
1,213250,note_on_c,1,70,100
1,213500,note_on_c,1,70,0
1,213500,note_on_c,1,71,100
1,213750,note_on_c,1,71,0
1,213750,note_on_c,1,63,100
1,214000,note_on_c,1,63,0
1,214000,note_on_c,1,65,100
1,214250,note_on_c,1,65,0
1,214250,note_on_c,1,61,100
1,214500,note_on_c,1,61,0
1,214500,note_on_c,1,60,100
1,214750,note_on_c,1,60,0
1,214750,note_on_c,1,62,100
1,215000,note_on_c,1,62,0
1,215000,note_on_c,1,66,100
1,215250,note_on_c,1,66,0
1,215250,note_on_c,1,68,100
1,215500,note_on_c,1,68,0
1,215500,note_on_c,1,69,100
1,215750,note_on_c,1,69,0
1,215750,note_on_c,1,67,100
1,216000,note_on_c,1,67,0
1,216000,note_on_c,1,65,100
1,216250,note_on_c,1,65,0
1,216250,note_on_c,1,71,100
1,216500,note_on_c,1,71,0
1,216500,note_on_c,1,60,100
1,216750,note_on_c,1,60,0
1,216750,note_on_c,1,64,100
1,217000,note_on_c,1,64,0
1,217000,note_on_c,1,66,100
1,217250,note_on_c,1,66,0
1,217250,note_on_c,1,62,100
1,217500,note_on_c,1,62,0
1,217500,note_on_c,1,61,100
1,217750,note_on_c,1,61,0
1,217750,note_on_c,1,63,100
1,218000,note_on_c,1,63,0
1,218000,note_on_c,1,67,100
1,218250,note_on_c,1,67,0
1,218250,note_on_c,1,69,100
1,218500,note_on_c,1,69,0
1,218500,note_on_c,1,70,100
1,218750,note_on_c,1,70,0
1,218750,note_on_c,1,68,100
1,219000,note_on_c,1,68,0
1,219000,note_on_c,1,60,100
1,219250,note_on_c,1,60,0
1,219250,note_on_c,1,62,100
1,219500,note_on_c,1,62,0
1,219500,note_on_c,1,61,100
1,219750,note_on_c,1,61,0
1,219750,note_on_c,1,71,100
1,220000,note_on_c,1,71,0
1,220000,note_on_c,1,67,100
1,220250,note_on_c,1,67,0
1,220250,note_on_c,1,65,100
1,220500,note_on_c,1,65,0
1,220500,note_on_c,1,66,100
1,220750,note_on_c,1,66,0
1,220750,note_on_c,1,70,100
1,221000,note_on_c,1,70,0
1,221000,note_on_c,1,68,100
1,221250,note_on_c,1,68,0
1,221250,note_on_c,1,64,100
1,221500,note_on_c,1,64,0
1,221500,note_on_c,1,63,100
1,221750,note_on_c,1,63,0
1,221750,note_on_c,1,69,100
1,222000,note_on_c,1,69,0
1,222000,note_on_c,1,68,100
1,222250,note_on_c,1,68,0
1,222250,note_on_c,1,66,100
1,222500,note_on_c,1,66,0
1,222500,note_on_c,1,67,100
1,222750,note_on_c,1,67,0
1,222750,note_on_c,1,69,100
1,223000,note_on_c,1,69,0
1,223000,note_on_c,1,61,100
1,223250,note_on_c,1,61,0
1,223250,note_on_c,1,63,100
1,223500,note_on_c,1,63,0
1,223500,note_on_c,1,62,100
1,223750,note_on_c,1,62,0
1,223750,note_on_c,1,70,100
1,224000,note_on_c,1,70,0
1,224000,note_on_c,1,60,100
1,224250,note_on_c,1,60,0
1,224250,note_on_c,1,64,100
1,224500,note_on_c,1,64,0
1,224500,note_on_c,1,65,100
1,224750,note_on_c,1,65,0
1,224750,note_on_c,1,71,100
1,225000,note_on_c,1,71,0
1,225000,note_on_c,1,64,100
1,225250,note_on_c,1,64,0
1,225250,note_on_c,1,62,100
1,225500,note_on_c,1,62,0
1,225500,note_on_c,1,63,100
1,225750,note_on_c,1,63,0
1,225750,note_on_c,1,65,100
1,226000,note_on_c,1,65,0
1,226000,note_on_c,1,69,100
1,226250,note_on_c,1,69,0
1,226250,note_on_c,1,71,100
1,226500,note_on_c,1,71,0
1,226500,note_on_c,1,70,100
1,226750,note_on_c,1,70,0
1,226750,note_on_c,1,66,100
1,227000,note_on_c,1,66,0
1,227000,note_on_c,1,68,100
1,227250,note_on_c,1,68,0
1,227250,note_on_c,1,60,100
1,227500,note_on_c,1,60,0
1,227500,note_on_c,1,61,100
1,227750,note_on_c,1,61,0
1,227750,note_on_c,1,67,100
1,228000,note_on_c,1,67,0
1,228000,note_on_c,1,60,100
1,228250,note_on_c,1,60,0
1,228250,note_on_c,1,62,100
1,228500,note_on_c,1,62,0
1,228500,note_on_c,1,61,100
1,228750,note_on_c,1,61,0
1,228750,note_on_c,1,71,100
1,229000,note_on_c,1,71,0
1,229000,note_on_c,1,67,100
1,229250,note_on_c,1,67,0
1,229250,note_on_c,1,65,100
1,229500,note_on_c,1,65,0
1,229500,note_on_c,1,66,100
1,229750,note_on_c,1,66,0
1,229750,note_on_c,1,70,100
1,230000,note_on_c,1,70,0
1,230000,note_on_c,1,68,100
1,230250,note_on_c,1,68,0
1,230250,note_on_c,1,64,100
1,230500,note_on_c,1,64,0
1,230500,note_on_c,1,63,100
1,230750,note_on_c,1,63,0
1,230750,note_on_c,1,69,100
1,231000,note_on_c,1,69,0
1,231000,note_on_c,1,70,100
1,231250,note_on_c,1,70,0
1,231250,note_on_c,1,68,100
1,231500,note_on_c,1,68,0
1,231500,note_on_c,1,69,100
1,231750,note_on_c,1,69,0
1,231750,note_on_c,1,71,100
1,232000,note_on_c,1,71,0
1,232000,note_on_c,1,63,100
1,232250,note_on_c,1,63,0
1,232250,note_on_c,1,65,100
1,232500,note_on_c,1,65,0
1,232500,note_on_c,1,64,100
1,232750,note_on_c,1,64,0
1,232750,note_on_c,1,60,100
1,233000,note_on_c,1,60,0
1,233000,note_on_c,1,62,100
1,233250,note_on_c,1,62,0
1,233250,note_on_c,1,66,100
1,233500,note_on_c,1,66,0
1,233500,note_on_c,1,67,100
1,233750,note_on_c,1,67,0
1,233750,note_on_c,1,61,100
1,234000,note_on_c,1,61,0
1,234000,note_on_c,1,68,100
1,234250,note_on_c,1,68,0
1,234250,note_on_c,1,70,100
1,234500,note_on_c,1,70,0
1,234500,note_on_c,1,69,100
1,234750,note_on_c,1,69,0
1,234750,note_on_c,1,67,100
1,235000,note_on_c,1,67,0
1,235000,note_on_c,1,63,100
1,235250,note_on_c,1,63,0
1,235250,note_on_c,1,61,100
1,235500,note_on_c,1,61,0
1,235500,note_on_c,1,62,100
1,235750,note_on_c,1,62,0
1,235750,note_on_c,1,66,100
1,236000,note_on_c,1,66,0
1,236000,note_on_c,1,64,100
1,236250,note_on_c,1,64,0
1,236250,note_on_c,1,60,100
1,236500,note_on_c,1,60,0
1,236500,note_on_c,1,71,100
1,236750,note_on_c,1,71,0
1,236750,note_on_c,1,65,100
1,237000,note_on_c,1,65,0
1,237000,note_on_c,1,70,100
1,237250,note_on_c,1,70,0
1,237250,note_on_c,1,64,100
1,237500,note_on_c,1,64,0
1,237500,note_on_c,1,63,100
1,237750,note_on_c,1,63,0
1,237750,note_on_c,1,71,100
1,238000,note_on_c,1,71,0
1,238000,note_on_c,1,69,100
1,238250,note_on_c,1,69,0
1,238250,note_on_c,1,61,100
1,238500,note_on_c,1,61,0
1,238500,note_on_c,1,62,100
1,238750,note_on_c,1,62,0
1,238750,note_on_c,1,60,100
1,239000,note_on_c,1,60,0
1,239000,note_on_c,1,68,100
1,239250,note_on_c,1,68,0
1,239250,note_on_c,1,66,100
1,239500,note_on_c,1,66,0
1,239500,note_on_c,1,65,100
1,239750,note_on_c,1,65,0
1,239750,note_on_c,1,67,100
1,240000,note_on_c,1,67,0
1,240000,note_on_c,1,66,100
1,240250,note_on_c,1,66,0
1,240250,note_on_c,1,60,100
1,240500,note_on_c,1,60,0
1,240500,note_on_c,1,61,100
1,240750,note_on_c,1,61,0
1,240750,note_on_c,1,65,100
1,241000,note_on_c,1,65,0
1,241000,note_on_c,1,67,100
1,241250,note_on_c,1,67,0
1,241250,note_on_c,1,63,100
1,241500,note_on_c,1,63,0
1,241500,note_on_c,1,62,100
1,241750,note_on_c,1,62,0
1,241750,note_on_c,1,64,100
1,242000,note_on_c,1,64,0
1,242000,note_on_c,1,68,100
1,242250,note_on_c,1,68,0
1,242250,note_on_c,1,70,100
1,242500,note_on_c,1,70,0
1,242500,note_on_c,1,71,100
1,242750,note_on_c,1,71,0
1,242750,note_on_c,1,69,100
1,243000,note_on_c,1,69,0
1,243000,note_on_c,1,69,100
1,243250,note_on_c,1,69,0
1,243250,note_on_c,1,71,100
1,243500,note_on_c,1,71,0
1,243500,note_on_c,1,70,100
1,243750,note_on_c,1,70,0
1,243750,note_on_c,1,68,100
1,244000,note_on_c,1,68,0
1,244000,note_on_c,1,64,100
1,244250,note_on_c,1,64,0
1,244250,note_on_c,1,62,100
1,244500,note_on_c,1,62,0
1,244500,note_on_c,1,63,100
1,244750,note_on_c,1,63,0
1,244750,note_on_c,1,67,100
1,245000,note_on_c,1,67,0
1,245000,note_on_c,1,65,100
1,245250,note_on_c,1,65,0
1,245250,note_on_c,1,61,100
1,245500,note_on_c,1,61,0
1,245500,note_on_c,1,60,100
1,245750,note_on_c,1,60,0
1,245750,note_on_c,1,66,100
1,246000,note_on_c,1,66,0
1,246000,note_on_c,1,60,100
1,246250,note_on_c,1,60,0
1,246250,note_on_c,1,66,100
1,246500,note_on_c,1,66,0
1,246500,note_on_c,1,65,100
1,246750,note_on_c,1,65,0
1,246750,note_on_c,1,61,100
1,247000,note_on_c,1,61,0
1,247000,note_on_c,1,71,100
1,247250,note_on_c,1,71,0
1,247250,note_on_c,1,63,100
1,247500,note_on_c,1,63,0
1,247500,note_on_c,1,64,100
1,247750,note_on_c,1,64,0
1,247750,note_on_c,1,62,100
1,248000,note_on_c,1,62,0
1,248000,note_on_c,1,70,100
1,248250,note_on_c,1,70,0
1,248250,note_on_c,1,68,100
1,248500,note_on_c,1,68,0
1,248500,note_on_c,1,67,100
1,248750,note_on_c,1,67,0
1,248750,note_on_c,1,69,100
1,249000,note_on_c,1,69,0
1,249000,note_on_c,1,69,100
1,249250,note_on_c,1,69,0
1,249250,note_on_c,1,67,100
1,249500,note_on_c,1,67,0
1,249500,note_on_c,1,68,100
1,249750,note_on_c,1,68,0
1,249750,note_on_c,1,70,100
1,250000,note_on_c,1,70,0
1,250000,note_on_c,1,62,100
1,250250,note_on_c,1,62,0
1,250250,note_on_c,1,64,100
1,250500,note_on_c,1,64,0
1,250500,note_on_c,1,63,100
1,250750,note_on_c,1,63,0
1,250750,note_on_c,1,71,100
1,251000,note_on_c,1,71,0
1,251000,note_on_c,1,61,100
1,251250,note_on_c,1,61,0
1,251250,note_on_c,1,65,100
1,251500,note_on_c,1,65,0
1,251500,note_on_c,1,66,100
1,251750,note_on_c,1,66,0
1,251750,note_on_c,1,60,100
1,252000,note_on_c,1,60,0
1,252000,End_track
0,0,End_of_file
