0,0,Header,0,1,480
1,0,Start_track
1,0,Tempo,500000
1,0,note_on_c,1,71,100
1,250,note_on_c,1,71,0
1,250,note_on_c,1,70,100
1,500,note_on_c,1,70,0
1,500,note_on_c,1,60,100
1,750,note_on_c,1,60,0
1,750,note_on_c,1,67,100
1,1000,note_on_c,1,67,0
1,1000,note_on_c,1,60,100
1,1250,note_on_c,1,60,0
1,1250,note_on_c,1,67,100
1,1500,note_on_c,1,67,0
1,1500,note_on_c,1,61,100
1,1750,note_on_c,1,61,0
1,1750,note_on_c,1,71,100
1,2000,note_on_c,1,71,0
1,2000,note_on_c,1,70,100
1,2250,note_on_c,1,70,0
1,2250,note_on_c,1,60,100
1,2500,note_on_c,1,60,0
1,2500,note_on_c,1,61,100
1,2750,note_on_c,1,61,0
1,2750,note_on_c,1,67,100
1,3000,note_on_c,1,67,0
1,3000,note_on_c,1,61,100
1,3250,note_on_c,1,61,0
1,3250,note_on_c,1,60,100
1,3500,note_on_c,1,60,0
1,3500,note_on_c,1,61,100
1,3750,note_on_c,1,61,0
1,3750,note_on_c,1,60,100
1,4000,note_on_c,1,60,0
1,4000,note_on_c,1,70,100
1,4250,note_on_c,1,70,0
1,4250,note_on_c,1,67,100
1,4500,note_on_c,1,67,0
1,4500,note_on_c,1,61,100
1,4750,note_on_c,1,61,0
1,4750,note_on_c,1,67,100
1,5000,note_on_c,1,67,0
1,5000,note_on_c,1,61,100
1,5250,note_on_c,1,61,0
1,5250,note_on_c,1,63,100
1,5500,note_on_c,1,63,0
1,5500,note_on_c,1,64,100
1,5750,note_on_c,1,64,0
1,5750,note_on_c,1,61,100
1,6000,note_on_c,1,61,0
1,6000,note_on_c,1,64,100
1,6250,note_on_c,1,64,0
1,6250,note_on_c,1,61,100
1,6500,note_on_c,1,61,0
1,6500,note_on_c,1,64,100
1,6750,note_on_c,1,64,0
1,6750,note_on_c,1,66,100
1,7000,note_on_c,1,66,0
1,7000,note_on_c,1,67,100
1,7250,note_on_c,1,67,0
1,7250,note_on_c,1,66,100
1,7500,note_on_c,1,66,0
1,7500,note_on_c,1,67,100
1,7750,note_on_c,1,67,0
1,7750,note_on_c,1,66,100
1,8000,note_on_c,1,66,0
1,8000,note_on_c,1,67,100
1,8250,note_on_c,1,67,0
1,8250,note_on_c,1,66,100
1,8500,note_on_c,1,66,0
1,8500,note_on_c,1,67,100
1,8750,note_on_c,1,67,0
1,8750,note_on_c,1,66,100
1,9000,note_on_c,1,66,0
1,9000,note_on_c,1,67,100
1,9250,note_on_c,1,67,0
1,9250,note_on_c,1,66,100
1,9500,note_on_c,1,66,0
1,9500,note_on_c,1,68,100
1,9750,note_on_c,1,68,0
1,9750,note_on_c,1,62,100
1,10000,note_on_c,1,62,0
1,10000,note_on_c,1,68,100
1,10250,note_on_c,1,68,0
1,10250,note_on_c,1,62,100
1,10500,note_on_c,1,62,0
1,10500,note_on_c,1,68,100
1,10750,note_on_c,1,68,0
1,10750,note_on_c,1,62,100
1,11000,note_on_c,1,62,0
1,11000,note_on_c,1,69,100
1,11250,note_on_c,1,69,0
1,11250,note_on_c,1,63,100
1,11500,note_on_c,1,63,0
1,11500,note_on_c,1,69,100
1,11750,note_on_c,1,69,0
1,11750,note_on_c,1,63,100
1,12000,note_on_c,1,63,0
1,12000,note_on_c,1,63,100
1,12250,note_on_c,1,63,0
1,12250,note_on_c,1,64,100
1,12500,note_on_c,1,64,0
1,12500,note_on_c,1,70,100
1,12750,note_on_c,1,70,0
1,12750,note_on_c,1,70,100
1,13000,note_on_c,1,70,0
1,13000,note_on_c,1,69,100
1,13250,note_on_c,1,69,0
1,13250,note_on_c,1,71,100
1,13500,note_on_c,1,71,0
1,13500,note_on_c,1,68,100
1,13750,note_on_c,1,68,0
1,13750,note_on_c,1,71,100
1,14000,note_on_c,1,71,0
1,14000,note_on_c,1,68,100
1,14250,note_on_c,1,68,0
1,14250,note_on_c,1,70,100
1,14500,note_on_c,1,70,0
1,14500,note_on_c,1,60,100
1,14750,note_on_c,1,60,0
1,14750,note_on_c,1,71,100
1,15000,note_on_c,1,71,0
1,15000,note_on_c,1,60,100
1,15250,note_on_c,1,60,0
1,15250,note_on_c,1,61,100
1,15500,note_on_c,1,61,0
1,15500,note_on_c,1,65,100
1,15750,note_on_c,1,65,0
1,15750,note_on_c,1,64,100
1,16000,note_on_c,1,64,0
1,16000,note_on_c,1,65,100
1,16250,note_on_c,1,65,0
1,16250,note_on_c,1,65,100
1,16500,note_on_c,1,65,0
1,16500,note_on_c,1,63,100
1,16750,note_on_c,1,63,0
1,16750,note_on_c,1,65,100
1,17000,note_on_c,1,65,0
1,17000,note_on_c,1,62,100
1,17250,note_on_c,1,62,0
1,17250,note_on_c,1,65,100
1,17500,note_on_c,1,65,0
1,17500,note_on_c,1,67,100
1,17750,note_on_c,1,67,0
1,17750,note_on_c,1,66,100
1,18000,note_on_c,1,66,0
1,18000,note_on_c,1,68,100
1,18250,note_on_c,1,68,0
1,18250,note_on_c,1,65,100
1,18500,note_on_c,1,65,0
1,18500,note_on_c,1,64,100
1,18750,note_on_c,1,64,0
1,18750,note_on_c,1,65,100
1,19000,note_on_c,1,65,0
1,19000,note_on_c,1,63,100
1,19250,note_on_c,1,63,0
1,19250,note_on_c,1,64,100
1,19500,note_on_c,1,64,0
1,19500,note_on_c,1,65,100
1,19750,note_on_c,1,65,0
1,19750,note_on_c,1,63,100
1,20000,note_on_c,1,63,0
1,20000,note_on_c,1,64,100
1,20250,note_on_c,1,64,0
1,20250,note_on_c,1,66,100
1,20500,note_on_c,1,66,0
1,20500,note_on_c,1,66,100
1,20750,note_on_c,1,66,0
1,20750,note_on_c,1,66,100
1,21000,note_on_c,1,66,0
1,21000,note_on_c,1,70,100
1,21250,note_on_c,1,70,0
1,21250,note_on_c,1,67,100
1,21500,note_on_c,1,67,0
1,21500,note_on_c,1,70,100
1,21750,note_on_c,1,70,0
1,21750,note_on_c,1,67,100
1,22000,note_on_c,1,67,0
1,22000,note_on_c,1,67,100
1,22250,note_on_c,1,67,0
1,22250,note_on_c,1,67,100
1,22500,note_on_c,1,67,0
1,22500,note_on_c,1,70,100
1,22750,note_on_c,1,70,0
1,22750,note_on_c,1,68,100
1,23000,note_on_c,1,68,0
1,23000,note_on_c,1,67,100
1,23250,note_on_c,1,67,0
1,23250,note_on_c,1,68,100
1,23500,note_on_c,1,68,0
1,23500,note_on_c,1,67,100
1,23750,note_on_c,1,67,0
1,23750,note_on_c,1,68,100
1,24000,note_on_c,1,68,0
1,24000,note_on_c,1,62,100
1,24250,note_on_c,1,62,0
1,24250,note_on_c,1,68,100
1,24500,note_on_c,1,68,0
1,24500,note_on_c,1,62,100
1,24750,note_on_c,1,62,0
1,24750,note_on_c,1,68,100
1,25000,note_on_c,1,68,0
1,25000,note_on_c,1,69,100
1,25250,note_on_c,1,69,0
1,25250,note_on_c,1,61,100
1,25500,note_on_c,1,61,0
1,25500,note_on_c,1,60,100
1,25750,note_on_c,1,60,0
1,25750,note_on_c,1,60,100
1,26000,note_on_c,1,60,0
1,26000,note_on_c,1,71,100
1,26250,note_on_c,1,71,0
1,26250,note_on_c,1,61,100
1,26500,note_on_c,1,61,0
1,26500,note_on_c,1,60,100
1,26750,note_on_c,1,60,0
1,26750,note_on_c,1,60,100
1,27000,note_on_c,1,60,0
1,27000,note_on_c,1,61,100
1,27250,note_on_c,1,61,0
1,27250,note_on_c,1,60,100
1,27500,note_on_c,1,60,0
1,27500,note_on_c,1,60,100
1,27750,note_on_c,1,60,0
1,27750,note_on_c,1,71,100
1,28000,note_on_c,1,71,0
1,28000,note_on_c,1,71,100
1,28250,note_on_c,1,71,0
1,28250,note_on_c,1,61,100
1,28500,note_on_c,1,61,0
1,28500,note_on_c,1,60,100
1,28750,note_on_c,1,60,0
1,28750,note_on_c,1,61,100
1,29000,note_on_c,1,61,0
1,29000,note_on_c,1,60,100
1,29250,note_on_c,1,60,0
1,29250,note_on_c,1,61,100
1,29500,note_on_c,1,61,0
1,29500,note_on_c,1,62,100
1,29750,note_on_c,1,62,0
1,29750,note_on_c,1,63,100
1,30000,note_on_c,1,63,0
1,30000,note_on_c,1,70,100
1,30250,note_on_c,1,70,0
1,30250,note_on_c,1,64,100
1,30500,note_on_c,1,64,0
1,30500,note_on_c,1,62,100
1,30750,note_on_c,1,62,0
1,30750,note_on_c,1,65,100
1,31000,note_on_c,1,65,0
1,31000,note_on_c,1,63,100
1,31250,note_on_c,1,63,0
1,31250,note_on_c,1,65,100
1,31500,note_on_c,1,65,0
1,31500,note_on_c,1,60,100
1,31750,note_on_c,1,60,0
1,31750,note_on_c,1,63,100
1,32000,note_on_c,1,63,0
1,32000,note_on_c,1,60,100
1,32250,note_on_c,1,60,0
1,32250,note_on_c,1,65,100
1,32500,note_on_c,1,65,0
1,32500,note_on_c,1,63,100
1,32750,note_on_c,1,63,0
1,32750,note_on_c,1,65,100
1,33000,note_on_c,1,65,0
1,33000,note_on_c,1,60,100
1,33250,note_on_c,1,60,0
1,33250,note_on_c,1,63,100
1,33500,note_on_c,1,63,0
1,33500,note_on_c,1,65,100
1,33750,note_on_c,1,65,0
1,33750,note_on_c,1,60,100
1,34000,note_on_c,1,60,0
1,34000,note_on_c,1,63,100
1,34250,note_on_c,1,63,0
1,34250,note_on_c,1,60,100
1,34500,note_on_c,1,60,0
1,34500,note_on_c,1,65,100
1,34750,note_on_c,1,65,0
1,34750,note_on_c,1,63,100
1,35000,note_on_c,1,63,0
1,35000,note_on_c,1,65,100
1,35250,note_on_c,1,65,0
1,35250,note_on_c,1,60,100
1,35500,note_on_c,1,60,0
1,35500,note_on_c,1,63,100
1,35750,note_on_c,1,63,0
1,35750,note_on_c,1,60,100
1,36000,note_on_c,1,60,0
1,36000,note_on_c,1,63,100
1,36250,note_on_c,1,63,0
1,36250,note_on_c,1,60,100
1,36500,note_on_c,1,60,0
1,36500,note_on_c,1,63,100
1,36750,note_on_c,1,63,0
1,36750,note_on_c,1,60,100
1,37000,note_on_c,1,60,0
1,37000,note_on_c,1,63,100
1,37250,note_on_c,1,63,0
1,37250,note_on_c,1,60,100
1,37500,note_on_c,1,60,0
1,37500,note_on_c,1,65,100
1,37750,note_on_c,1,65,0
1,37750,note_on_c,1,66,100
1,38000,note_on_c,1,66,0
1,38000,note_on_c,1,69,100
1,38250,note_on_c,1,69,0
1,38250,note_on_c,1,66,100
1,38500,note_on_c,1,66,0
1,38500,note_on_c,1,69,100
1,38750,note_on_c,1,69,0
1,38750,note_on_c,1,69,100
1,39000,note_on_c,1,69,0
1,39000,note_on_c,1,68,100
1,39250,note_on_c,1,68,0
1,39250,note_on_c,1,69,100
1,39500,note_on_c,1,69,0
1,39500,note_on_c,1,67,100
1,39750,note_on_c,1,67,0
1,39750,note_on_c,1,69,100
1,40000,note_on_c,1,69,0
1,40000,note_on_c,1,68,100
1,40250,note_on_c,1,68,0
1,40250,note_on_c,1,67,100
1,40500,note_on_c,1,67,0
1,40500,note_on_c,1,69,100
1,40750,note_on_c,1,69,0
1,40750,note_on_c,1,67,100
1,41000,note_on_c,1,67,0
1,41000,note_on_c,1,68,100
1,41250,note_on_c,1,68,0
1,41250,note_on_c,1,68,100
1,41500,note_on_c,1,68,0
1,41500,note_on_c,1,69,100
1,41750,note_on_c,1,69,0
1,41750,note_on_c,1,67,100
1,42000,note_on_c,1,67,0
1,42000,note_on_c,1,69,100
1,42250,note_on_c,1,69,0
1,42250,note_on_c,1,65,100
1,42500,note_on_c,1,65,0
1,42500,note_on_c,1,60,100
1,42750,note_on_c,1,60,0
1,42750,note_on_c,1,71,100
1,43000,note_on_c,1,71,0
1,43000,note_on_c,1,61,100
1,43250,note_on_c,1,61,0
1,43250,note_on_c,1,60,100
1,43500,note_on_c,1,60,0
1,43500,note_on_c,1,71,100
1,43750,note_on_c,1,71,0
1,43750,note_on_c,1,61,100
1,44000,note_on_c,1,61,0
1,44000,note_on_c,1,71,100
1,44250,note_on_c,1,71,0
1,44250,note_on_c,1,60,100
1,44500,note_on_c,1,60,0
1,44500,note_on_c,1,61,100
1,44750,note_on_c,1,61,0
1,44750,note_on_c,1,60,100
1,45000,note_on_c,1,60,0
1,45000,note_on_c,1,71,100
1,45250,note_on_c,1,71,0
1,45250,note_on_c,1,61,100
1,45500,note_on_c,1,61,0
1,45500,note_on_c,1,68,100
1,45750,note_on_c,1,68,0
1,45750,note_on_c,1,62,100
1,46000,note_on_c,1,62,0
1,46000,note_on_c,1,63,100
1,46250,note_on_c,1,63,0
1,46250,note_on_c,1,70,100
1,46500,note_on_c,1,70,0
1,46500,note_on_c,1,64,100
1,46750,note_on_c,1,64,0
1,46750,note_on_c,1,67,100
1,47000,note_on_c,1,67,0
1,47000,note_on_c,1,68,100
1,47250,note_on_c,1,68,0
1,47250,note_on_c,1,65,100
1,47500,note_on_c,1,65,0
1,47500,note_on_c,1,68,100
1,47750,note_on_c,1,68,0
1,47750,note_on_c,1,65,100
1,48000,note_on_c,1,65,0
1,48000,note_on_c,1,68,100
1,48250,note_on_c,1,68,0
1,48250,note_on_c,1,68,100
1,48500,note_on_c,1,68,0
1,48500,note_on_c,1,65,100
1,48750,note_on_c,1,65,0
1,48750,note_on_c,1,68,100
1,49000,note_on_c,1,68,0
1,49000,note_on_c,1,65,100
1,49250,note_on_c,1,65,0
1,49250,note_on_c,1,65,100
1,49500,note_on_c,1,65,0
1,49500,note_on_c,1,68,100
1,49750,note_on_c,1,68,0
1,49750,note_on_c,1,65,100
1,50000,note_on_c,1,65,0
1,50000,note_on_c,1,68,100
1,50250,note_on_c,1,68,0
1,50250,note_on_c,1,65,100
1,50500,note_on_c,1,65,0
1,50500,note_on_c,1,68,100
1,50750,note_on_c,1,68,0
1,50750,note_on_c,1,68,100
1,51000,note_on_c,1,68,0
1,51000,note_on_c,1,62,100
1,51250,note_on_c,1,62,0
1,51250,note_on_c,1,62,100
1,51500,note_on_c,1,62,0
1,51500,note_on_c,1,62,100
1,51750,note_on_c,1,62,0
1,51750,note_on_c,1,63,100
1,52000,note_on_c,1,63,0
1,52000,note_on_c,1,61,100
1,52250,note_on_c,1,61,0
1,52250,note_on_c,1,66,100
1,52500,note_on_c,1,66,0
1,52500,note_on_c,1,60,100
1,52750,note_on_c,1,60,0
1,52750,note_on_c,1,71,100
1,53000,note_on_c,1,71,0
1,53000,note_on_c,1,66,100
1,53250,note_on_c,1,66,0
1,53250,note_on_c,1,60,100
1,53500,note_on_c,1,60,0
1,53500,note_on_c,1,71,100
1,53750,note_on_c,1,71,0
1,53750,note_on_c,1,66,100
1,54000,note_on_c,1,66,0
1,54000,note_on_c,1,60,100
1,54250,note_on_c,1,60,0
1,54250,note_on_c,1,71,100
1,54500,note_on_c,1,71,0
1,54500,note_on_c,1,66,100
1,54750,note_on_c,1,66,0
1,54750,note_on_c,1,70,100
1,55000,note_on_c,1,70,0
1,55000,note_on_c,1,68,100
1,55250,note_on_c,1,68,0
1,55250,note_on_c,1,67,100
1,55500,note_on_c,1,67,0
1,55500,note_on_c,1,70,100
1,55750,note_on_c,1,70,0
1,55750,note_on_c,1,67,100
1,56000,note_on_c,1,67,0
1,56000,note_on_c,1,70,100
1,56250,note_on_c,1,70,0
1,56250,note_on_c,1,60,100
1,56500,note_on_c,1,60,0
1,56500,note_on_c,1,61,100
1,56750,note_on_c,1,61,0
1,56750,note_on_c,1,70,100
1,57000,note_on_c,1,70,0
1,57000,note_on_c,1,61,100
1,57250,note_on_c,1,61,0
1,57250,note_on_c,1,63,100
1,57500,note_on_c,1,63,0
1,57500,note_on_c,1,64,100
1,57750,note_on_c,1,64,0
1,57750,note_on_c,1,70,100
1,58000,note_on_c,1,70,0
1,58000,note_on_c,1,64,100
1,58250,note_on_c,1,64,0
1,58250,note_on_c,1,66,100
1,58500,note_on_c,1,66,0
1,58500,note_on_c,1,70,100
1,58750,note_on_c,1,70,0
1,58750,note_on_c,1,68,100
1,59000,note_on_c,1,68,0
1,59000,note_on_c,1,70,100
1,59250,note_on_c,1,70,0
1,59250,note_on_c,1,66,100
1,59500,note_on_c,1,66,0
1,59500,note_on_c,1,68,100
1,59750,note_on_c,1,68,0
1,59750,note_on_c,1,66,100
1,60000,note_on_c,1,66,0
1,60000,note_on_c,1,70,100
1,60250,note_on_c,1,70,0
1,60250,note_on_c,1,64,100
1,60500,note_on_c,1,64,0
1,60500,note_on_c,1,68,100
1,60750,note_on_c,1,68,0
1,60750,note_on_c,1,60,100
1,61000,note_on_c,1,60,0
1,61000,note_on_c,1,67,100
1,61250,note_on_c,1,67,0
1,61250,note_on_c,1,69,100
1,61500,note_on_c,1,69,0
1,61500,note_on_c,1,71,100
1,61750,note_on_c,1,71,0
1,61750,note_on_c,1,65,100
1,62000,note_on_c,1,65,0
1,62000,End_track
0,0,End_of_file
